<svg xmlns="http://www.w3.org/2000/svg" xmlns:xlink="http://www.w3.org/1999/xlink" width="900" zoomAndPan="magnify" viewBox="0 0 675 262.499992" height="350" preserveAspectRatio="xMidYMid meet" version="1.0"><defs><g/><clipPath id="6e1ad44534"><path d="M 0.640625 70.699219 L 155.597656 70.699219 L 155.597656 187.476562 L 0.640625 187.476562 Z M 0.640625 70.699219 " clip-rule="nonzero"/></clipPath></defs><g clip-path="url(#6e1ad44534)"><path fill="#171717" d="M 37.40625 80.296875 L 0.925781 80.296875 C 0.925781 75.628906 4.734375 71.785156 9.476562 71.785156 L 39.125 71.785156 C 43.15625 71.785156 46.589844 74.398438 47.488281 78.316406 L 58.839844 133.132812 C 59.027344 134.101562 59.882812 134.738281 60.855469 134.738281 L 140.015625 134.4375 C 144.121094 134.4375 147.894531 136.082031 150.65625 138.808594 C 153.382812 141.496094 155.136719 145.269531 155.175781 149.414062 L 155.175781 149.824219 C 155.324219 160.015625 146.511719 167.746094 136.132812 164.199219 C 123.175781 159.753906 99.390625 150.90625 50.660156 159.792969 C 79.003906 149.261719 109.398438 147.472656 137.960938 155.871094 C 143.113281 157.402344 146.773438 155.164062 146.660156 149.933594 L 146.660156 149.523438 C 146.660156 147.730469 145.878906 146.089844 144.683594 144.894531 C 143.449219 143.699219 141.808594 142.988281 140.015625 142.988281 L 59.136719 143.289062 C 55.476562 143.289062 52.230469 140.863281 51.484375 137.238281 L 40.09375 82.425781 C 39.871094 81.15625 38.714844 80.296875 37.480469 80.296875 Z M 85.015625 112.671875 C 89.53125 112.855469 93.265625 112.933594 96.703125 112.933594 C 96.476562 110.988281 96.476562 108.972656 96.703125 106.84375 C 93.003906 106.507812 89.644531 105.875 86.84375 104.976562 C 90.652344 105.164062 93.863281 105.238281 96.886719 105.238281 C 97.1875 103.296875 97.671875 101.28125 98.382812 99.339844 C 93.414062 98.707031 88.898438 97.472656 85.613281 96.089844 C 90.800781 97.210938 94.648438 97.734375 98.867188 98.035156 C 99.277344 96.988281 99.761719 95.941406 100.285156 94.933594 C 100.136719 96.054688 99.988281 97.101562 99.875 98.070312 C 102.453125 98.257812 105.214844 98.332031 108.574219 98.40625 C 109.097656 96.875 109.65625 95.308594 110.40625 93.8125 C 110.179688 95.457031 110.03125 97.0625 109.808594 98.480469 C 111.523438 98.519531 113.390625 98.554688 115.484375 98.667969 C 113.617188 99.152344 111.675781 99.453125 109.65625 99.640625 C 109.433594 101.582031 109.210938 103.296875 109.097656 104.941406 C 111.824219 104.753906 114.8125 104.53125 118.285156 104.269531 C 118.769531 100.460938 119.851562 96.503906 121.605469 92.730469 C 121.007812 97.4375 120.5625 101.019531 120.300781 104.121094 C 122.652344 103.894531 125.230469 103.671875 128.066406 103.484375 C 125.453125 104.269531 122.839844 104.976562 120.152344 105.539062 C 120 107.742188 119.851562 109.71875 119.816406 111.699219 C 121.792969 111.550781 123.921875 111.363281 126.238281 111.214844 C 124.109375 111.847656 121.90625 112.445312 119.777344 112.933594 C 119.777344 115.507812 119.851562 118.269531 120.039062 121.632812 C 118.992188 119.316406 118.285156 116.441406 117.984375 113.304688 C 114.847656 113.941406 111.710938 114.386719 108.574219 114.648438 C 108.613281 116.664062 108.6875 118.90625 108.835938 121.484375 C 107.941406 119.617188 107.269531 117.300781 106.933594 114.761719 C 104.058594 114.949219 101.21875 114.984375 98.53125 114.875 C 98.53125 116.515625 98.605469 118.234375 98.753906 120.324219 C 97.972656 118.71875 97.296875 116.851562 96.960938 114.796875 C 92.445312 114.5 88.375 113.789062 85.050781 112.746094 Z M 108.613281 112.484375 C 111.375 112.335938 114.398438 112.074219 117.910156 111.8125 C 117.796875 109.90625 117.835938 107.890625 118.058594 105.875 C 114.960938 106.398438 111.859375 106.808594 108.875 106.996094 C 108.726562 108.898438 108.648438 110.691406 108.613281 112.484375 Z M 98.941406 105.238281 C 101.667969 105.238281 104.242188 105.164062 107.007812 105.015625 C 107.269531 103.261719 107.605469 101.503906 108.128906 99.714844 C 105.328125 99.898438 102.453125 99.75 99.652344 99.453125 C 99.351562 101.65625 99.164062 103.523438 98.941406 105.203125 Z M 98.492188 112.933594 C 101.183594 112.855469 103.832031 112.78125 106.746094 112.632812 C 106.632812 110.839844 106.632812 109.011719 106.746094 107.105469 C 104.019531 107.21875 101.292969 107.179688 98.753906 107.03125 C 98.566406 109.085938 98.457031 110.914062 98.457031 112.933594 Z M 108.726562 176.035156 C 108.726562 182.308594 113.804688 187.347656 120.113281 187.347656 C 126.421875 187.347656 131.425781 182.269531 131.425781 176.035156 C 131.425781 169.800781 126.347656 164.648438 120.113281 164.648438 C 113.878906 164.648438 108.726562 169.761719 108.726562 176.035156 Z M 79.375 164.085938 C 73.101562 164.085938 68.023438 169.164062 68.023438 175.4375 C 68.023438 181.710938 73.140625 186.789062 79.375 186.789062 C 85.613281 186.789062 90.726562 181.710938 90.726562 175.4375 C 90.726562 169.164062 85.613281 164.085938 79.375 164.085938 Z M 140.761719 130.628906 L 140.539062 126.148438 C 139.679688 108.339844 144.871094 94.898438 148.527344 85.300781 C 149.460938 82.949219 150.246094 80.855469 150.695312 79.476562 L 153.71875 70.699219 L 145.054688 74.136719 C 126.199219 81.679688 101.703125 96.988281 69.21875 76.226562 C 92.78125 97.957031 113.988281 93.328125 139.457031 85.226562 C 135.984375 94.410156 131.949219 106.507812 131.914062 122.078125 L 62.535156 129.734375 Z M 140.761719 130.628906 " fill-opacity="1" fill-rule="nonzero"/></g><g fill="#f6971d" fill-opacity="1"><g transform="translate(167.43249, 150.41802)"><g><path d="M 59.390625 -92.09375 L 59.390625 -73.671875 L 27.6875 -73.671875 L 27.6875 -55.359375 L 58.046875 -55.359375 L 58.046875 -36.953125 L 27.6875 -36.953125 L 27.6875 -18.421875 L 59.390625 -18.421875 L 59.390625 0 L 6.703125 0 L 6.703125 -92.09375 Z M 59.390625 -92.09375 "/></g></g></g><g fill="#f6971d" fill-opacity="1"><g transform="translate(232.164902, 150.41802)"><g><path d="M 6.703125 0 L 6.703125 -96 L 26.453125 -96 L 26.453125 0 Z M 6.703125 0 "/></g></g></g><g fill="#f6971d" fill-opacity="1"><g transform="translate(265.312359, 150.41802)"><g><path d="M 64.625 -25.890625 L 23.109375 -25.890625 C 23.109375 -21.878906 24.410156 -18.90625 27.015625 -16.96875 C 29.617188 -15.03125 32.445312 -14.0625 35.5 -14.0625 C 38.695312 -14.0625 41.222656 -14.488281 43.078125 -15.34375 C 44.941406 -16.195312 47.066406 -17.890625 49.453125 -20.421875 L 63.734375 -13.28125 C 57.785156 -3.3125 47.890625 1.671875 34.046875 1.671875 C 25.410156 1.671875 18.003906 -1.285156 11.828125 -7.203125 C 5.648438 -13.117188 2.5625 -20.242188 2.5625 -28.578125 C 2.5625 -36.910156 5.648438 -44.050781 11.828125 -50 C 18.003906 -55.957031 25.410156 -58.9375 34.046875 -58.9375 C 43.117188 -58.9375 50.503906 -56.3125 56.203125 -51.0625 C 61.898438 -45.820312 64.75 -38.328125 64.75 -28.578125 C 64.75 -27.234375 64.707031 -26.335938 64.625 -25.890625 Z M 23.671875 -36.84375 L 45.4375 -36.84375 C 44.988281 -39.8125 43.8125 -42.09375 41.90625 -43.6875 C 40.007812 -45.289062 37.578125 -46.09375 34.609375 -46.09375 C 31.328125 -46.09375 28.71875 -45.238281 26.78125 -43.53125 C 24.851562 -41.820312 23.816406 -39.59375 23.671875 -36.84375 Z M 23.671875 -36.84375 "/></g></g></g><g fill="#f6971d" fill-opacity="1"><g transform="translate(332.61175, 150.41802)"><g><path d="M 37.171875 -42.75 C 33.453125 -42.75 30.25 -41.367188 27.5625 -38.609375 C 24.882812 -35.859375 23.546875 -32.550781 23.546875 -28.6875 C 23.546875 -24.738281 24.882812 -21.390625 27.5625 -18.640625 C 30.25 -15.890625 33.453125 -14.515625 37.171875 -14.515625 C 38.953125 -14.515625 40.644531 -14.734375 42.25 -15.171875 C 43.851562 -15.617188 45.023438 -16.066406 45.765625 -16.515625 L 46.765625 -17.1875 L 53.46875 -3.453125 C 52.945312 -3.085938 52.21875 -2.625 51.28125 -2.0625 C 50.351562 -1.507812 48.234375 -0.75 44.921875 0.21875 C 41.617188 1.1875 38.066406 1.671875 34.265625 1.671875 C 25.859375 1.671875 18.472656 -1.285156 12.109375 -7.203125 C 5.742188 -13.117188 2.5625 -20.207031 2.5625 -28.46875 C 2.5625 -36.800781 5.742188 -43.960938 12.109375 -49.953125 C 18.472656 -55.941406 25.859375 -58.9375 34.265625 -58.9375 C 38.066406 -58.9375 41.566406 -58.488281 44.765625 -57.59375 C 47.960938 -56.707031 50.234375 -55.816406 51.578125 -54.921875 L 53.46875 -53.578125 L 46.765625 -40.078125 C 44.316406 -41.859375 41.117188 -42.75 37.171875 -42.75 Z M 37.171875 -42.75 "/></g></g></g><g fill="#171717" fill-opacity="1"><g transform="translate(387.411072, 150.41802)"><g><path d="M 82.828125 0 L 78.46875 -54.578125 L 77.921875 -54.578125 L 59.046875 -0.5625 L 46.546875 -0.5625 L 27.6875 -54.578125 L 27.125 -54.578125 L 22.765625 0 L 1.78125 0 L 10.046875 -92.09375 L 32.375 -92.09375 L 52.796875 -38.953125 L 73.21875 -92.09375 L 95.546875 -92.09375 L 103.8125 0 Z M 82.828125 0 "/></g></g></g><g fill="#171717" fill-opacity="1"><g transform="translate(492.991876, 150.41802)"><g><path d="M 10.59375 -7.078125 C 5.238281 -12.921875 2.5625 -20.082031 2.5625 -28.5625 C 2.5625 -37.050781 5.238281 -44.234375 10.59375 -50.109375 C 15.957031 -55.992188 22.769531 -58.9375 31.03125 -58.9375 C 38.625 -58.9375 44.875 -56.554688 49.78125 -51.796875 L 49.78125 -57.265625 L 69.546875 -57.265625 L 69.546875 0 L 50.015625 0 L 50.015625 -6.46875 L 49.78125 -6.46875 C 44.875 -1.039062 38.625 1.671875 31.03125 1.671875 C 22.769531 1.671875 15.957031 -1.242188 10.59375 -7.078125 Z M 27.390625 -38.28125 C 24.828125 -35.75 23.546875 -32.507812 23.546875 -28.5625 C 23.546875 -24.625 24.773438 -21.410156 27.234375 -18.921875 C 29.691406 -16.429688 32.929688 -15.1875 36.953125 -15.1875 C 40.816406 -15.1875 43.992188 -16.445312 46.484375 -18.96875 C 48.984375 -21.5 50.234375 -24.703125 50.234375 -28.578125 C 50.234375 -32.515625 48.945312 -35.75 46.375 -38.28125 C 43.8125 -40.8125 40.671875 -42.078125 36.953125 -42.078125 C 33.148438 -42.078125 29.960938 -40.8125 27.390625 -38.28125 Z M 27.390625 -38.28125 "/></g></g></g><g fill="#171717" fill-opacity="1"><g transform="translate(569.21987, 150.41802)"><g><path d="M 6.703125 0 L 6.703125 -57.265625 L 26.453125 -57.265625 L 26.453125 -49 L 26.671875 -49 C 26.828125 -49.300781 27.070312 -49.675781 27.40625 -50.125 C 27.738281 -50.570312 28.460938 -51.351562 29.578125 -52.46875 C 30.691406 -53.582031 31.878906 -54.582031 33.140625 -55.46875 C 34.410156 -56.363281 36.050781 -57.164062 38.0625 -57.875 C 40.070312 -58.582031 42.117188 -58.9375 44.203125 -58.9375 C 46.359375 -58.9375 48.476562 -58.640625 50.5625 -58.046875 C 52.644531 -57.453125 54.171875 -56.859375 55.140625 -56.265625 L 56.703125 -55.359375 L 48.4375 -38.625 C 45.988281 -40.707031 42.566406 -41.75 38.171875 -41.75 C 35.796875 -41.75 33.75 -41.226562 32.03125 -40.1875 C 30.320312 -39.144531 29.113281 -37.878906 28.40625 -36.390625 C 27.695312 -34.898438 27.191406 -33.632812 26.890625 -32.59375 C 26.597656 -31.550781 26.453125 -30.734375 26.453125 -30.140625 L 26.453125 0 Z M 6.703125 0 "/></g></g></g><g fill="#171717" fill-opacity="1"><g transform="translate(624.800476, 150.41802)"><g><path d="M 10.046875 -57.265625 L 10.046875 -78.578125 L 29.796875 -78.578125 L 29.796875 -57.265625 L 41.859375 -57.265625 L 41.859375 -42.1875 L 29.796875 -42.1875 L 29.796875 -24 C 29.796875 -18.71875 31.285156 -16.078125 34.265625 -16.078125 C 35.015625 -16.078125 35.796875 -16.222656 36.609375 -16.515625 C 37.429688 -16.816406 38.066406 -17.113281 38.515625 -17.40625 L 39.1875 -17.859375 L 44.09375 -1.890625 C 39.851562 0.484375 35.015625 1.671875 29.578125 1.671875 C 25.859375 1.671875 22.660156 1.019531 19.984375 -0.28125 C 17.304688 -1.582031 15.273438 -3.328125 13.890625 -5.515625 C 12.515625 -7.710938 11.53125 -10.019531 10.9375 -12.4375 C 10.34375 -14.863281 10.046875 -17.453125 10.046875 -20.203125 L 10.046875 -42.1875 L 1.78125 -42.1875 L 1.78125 -57.265625 Z M 10.046875 -57.265625 "/></g></g></g><g fill="#f6971d" fill-opacity="1"><g transform="translate(266.888269, 199.184435)"><g><path d="M 22.84375 -27.859375 L 22.84375 -8.921875 C 22.832031 -6.285156 22.003906 -4.132812 20.359375 -2.46875 C 18.722656 -0.800781 16.503906 0.132812 13.703125 0.34375 L 12.71875 0.375 C 9.675781 0.375 7.25 -0.441406 5.4375 -2.078125 C 3.625 -3.722656 2.703125 -5.988281 2.671875 -8.875 L 2.671875 -27.859375 L 6.3125 -27.859375 L 6.3125 -9 C 6.3125 -6.976562 6.863281 -5.410156 7.96875 -4.296875 C 9.082031 -3.179688 10.664062 -2.625 12.71875 -2.625 C 14.800781 -2.625 16.394531 -3.175781 17.5 -4.28125 C 18.601562 -5.394531 19.15625 -6.957031 19.15625 -8.96875 L 19.15625 -27.859375 Z M 22.84375 -27.859375 "/></g></g></g><g fill="#f6971d" fill-opacity="1"><g transform="translate(299.15346, 199.184435)"><g><path d="M 6.03125 -20.703125 L 6.140625 -18.09375 C 7.722656 -20.09375 9.789062 -21.09375 12.34375 -21.09375 C 16.71875 -21.09375 18.925781 -18.625 18.96875 -13.6875 L 18.96875 0 L 15.421875 0 L 15.421875 -13.703125 C 15.410156 -15.191406 15.066406 -16.289062 14.390625 -17 C 13.722656 -17.71875 12.679688 -18.078125 11.265625 -18.078125 C 10.117188 -18.078125 9.113281 -17.769531 8.25 -17.15625 C 7.382812 -16.550781 6.707031 -15.75 6.21875 -14.75 L 6.21875 0 L 2.671875 0 L 2.671875 -20.703125 Z M 6.03125 -20.703125 "/></g></g></g><g fill="#f6971d" fill-opacity="1"><g transform="translate(327.630774, 199.184435)"><g><path d="M 20.203125 -10.125 C 20.203125 -6.957031 19.472656 -4.414062 18.015625 -2.5 C 16.566406 -0.582031 14.617188 0.375 12.171875 0.375 C 9.554688 0.375 7.535156 -0.546875 6.109375 -2.390625 L 5.9375 0 L 2.671875 0 L 2.671875 -29.390625 L 6.21875 -29.390625 L 6.21875 -18.421875 C 7.644531 -20.203125 9.613281 -21.09375 12.125 -21.09375 C 14.644531 -21.09375 16.617188 -20.140625 18.046875 -18.234375 C 19.484375 -16.335938 20.203125 -13.734375 20.203125 -10.421875 Z M 16.671875 -10.53125 C 16.671875 -12.9375 16.203125 -14.796875 15.265625 -16.109375 C 14.335938 -17.421875 13 -18.078125 11.25 -18.078125 C 8.914062 -18.078125 7.238281 -16.992188 6.21875 -14.828125 L 6.21875 -5.875 C 7.300781 -3.707031 8.992188 -2.625 11.296875 -2.625 C 12.984375 -2.625 14.300781 -3.28125 15.25 -4.59375 C 16.195312 -5.90625 16.671875 -7.882812 16.671875 -10.53125 Z M 16.671875 -10.53125 "/></g></g></g><g fill="#f6971d" fill-opacity="1"><g transform="translate(356.471571, 199.184435)"><g><path d="M 1.734375 -10.546875 C 1.734375 -12.566406 2.132812 -14.390625 2.9375 -16.015625 C 3.738281 -17.640625 4.847656 -18.890625 6.265625 -19.765625 C 7.691406 -20.648438 9.316406 -21.09375 11.140625 -21.09375 C 13.953125 -21.09375 16.226562 -20.113281 17.96875 -18.15625 C 19.71875 -16.207031 20.59375 -13.613281 20.59375 -10.375 L 20.59375 -10.125 C 20.59375 -8.101562 20.207031 -6.289062 19.4375 -4.6875 C 18.664062 -3.09375 17.5625 -1.847656 16.125 -0.953125 C 14.6875 -0.0664062 13.035156 0.375 11.171875 0.375 C 8.367188 0.375 6.09375 -0.597656 4.34375 -2.546875 C 2.601562 -4.492188 1.734375 -7.078125 1.734375 -10.296875 Z M 5.296875 -10.125 C 5.296875 -7.820312 5.828125 -5.972656 6.890625 -4.578125 C 7.960938 -3.191406 9.390625 -2.5 11.171875 -2.5 C 12.972656 -2.5 14.398438 -3.203125 15.453125 -4.609375 C 16.515625 -6.023438 17.046875 -8.003906 17.046875 -10.546875 C 17.046875 -12.816406 16.503906 -14.65625 15.421875 -16.0625 C 14.347656 -17.46875 12.921875 -18.171875 11.140625 -18.171875 C 9.390625 -18.171875 7.976562 -17.472656 6.90625 -16.078125 C 5.832031 -14.691406 5.296875 -12.707031 5.296875 -10.125 Z M 5.296875 -10.125 "/></g></g></g><g fill="#f6971d" fill-opacity="1"><g transform="translate(385.675852, 199.184435)"><g><path d="M 9.625 -13.140625 L 14.21875 -20.703125 L 18.34375 -20.703125 L 11.578125 -10.46875 L 18.5625 0 L 14.46875 0 L 9.6875 -7.75 L 4.90625 0 L 0.78125 0 L 7.765625 -10.46875 L 1 -20.703125 L 5.09375 -20.703125 Z M 9.625 -13.140625 "/></g></g></g><g fill="#f6971d" fill-opacity="1"><g transform="translate(411.953137, 199.184435)"><g/></g></g><g fill="#f6971d" fill-opacity="1"><g transform="translate(428.51203, 199.184435)"><g><path d="M 24.640625 0 L 20.953125 0 L 20.953125 -12.875 L 6.90625 -12.875 L 6.90625 0 L 3.234375 0 L 3.234375 -27.859375 L 6.90625 -27.859375 L 6.90625 -15.875 L 20.953125 -15.875 L 20.953125 -27.859375 L 24.640625 -27.859375 Z M 24.640625 0 "/></g></g></g><g fill="#f6971d" fill-opacity="1"><g transform="translate(463.302472, 199.184435)"><g><path d="M 15.453125 0 C 15.253906 -0.40625 15.09375 -1.132812 14.96875 -2.1875 C 13.320312 -0.476562 11.351562 0.375 9.0625 0.375 C 7.03125 0.375 5.359375 -0.195312 4.046875 -1.34375 C 2.734375 -2.5 2.078125 -3.960938 2.078125 -5.734375 C 2.078125 -7.890625 2.894531 -9.5625 4.53125 -10.75 C 6.175781 -11.945312 8.488281 -12.546875 11.46875 -12.546875 L 14.90625 -12.546875 L 14.90625 -14.171875 C 14.90625 -15.410156 14.535156 -16.394531 13.796875 -17.125 C 13.054688 -17.863281 11.96875 -18.234375 10.53125 -18.234375 C 9.257812 -18.234375 8.195312 -17.914062 7.34375 -17.28125 C 6.488281 -16.644531 6.0625 -15.875 6.0625 -14.96875 L 2.5 -14.96875 C 2.5 -16 2.863281 -16.992188 3.59375 -17.953125 C 4.332031 -18.921875 5.332031 -19.6875 6.59375 -20.25 C 7.851562 -20.8125 9.234375 -21.09375 10.734375 -21.09375 C 13.117188 -21.09375 14.988281 -20.492188 16.34375 -19.296875 C 17.695312 -18.109375 18.398438 -16.46875 18.453125 -14.375 L 18.453125 -4.84375 C 18.453125 -2.9375 18.691406 -1.425781 19.171875 -0.3125 L 19.171875 0 Z M 9.59375 -2.703125 C 10.695312 -2.703125 11.742188 -2.988281 12.734375 -3.5625 C 13.734375 -4.132812 14.457031 -4.878906 14.90625 -5.796875 L 14.90625 -10.046875 L 12.125 -10.046875 C 7.789062 -10.046875 5.625 -8.773438 5.625 -6.234375 C 5.625 -5.128906 5.992188 -4.265625 6.734375 -3.640625 C 7.472656 -3.015625 8.425781 -2.703125 9.59375 -2.703125 Z M 9.59375 -2.703125 "/></g></g></g><g fill="#f6971d" fill-opacity="1"><g transform="translate(491.473695, 199.184435)"><g><path d="M 20.171875 -10.125 C 20.171875 -6.96875 19.445312 -4.425781 18 -2.5 C 16.5625 -0.582031 14.613281 0.375 12.15625 0.375 C 9.632812 0.375 7.65625 -0.421875 6.21875 -2.015625 L 6.21875 7.953125 L 2.671875 7.953125 L 2.671875 -20.703125 L 5.90625 -20.703125 L 6.078125 -18.40625 C 7.523438 -20.195312 9.53125 -21.09375 12.09375 -21.09375 C 14.582031 -21.09375 16.550781 -20.148438 18 -18.265625 C 19.445312 -16.390625 20.171875 -13.785156 20.171875 -10.453125 Z M 16.625 -10.53125 C 16.625 -12.863281 16.125 -14.703125 15.125 -16.046875 C 14.132812 -17.398438 12.773438 -18.078125 11.046875 -18.078125 C 8.898438 -18.078125 7.289062 -17.128906 6.21875 -15.234375 L 6.21875 -5.34375 C 7.28125 -3.445312 8.898438 -2.5 11.078125 -2.5 C 12.773438 -2.5 14.125 -3.171875 15.125 -4.515625 C 16.125 -5.867188 16.625 -7.875 16.625 -10.53125 Z M 16.625 -10.53125 "/></g></g></g><g fill="#f6971d" fill-opacity="1"><g transform="translate(520.314492, 199.184435)"><g><path d="M 20.171875 -10.125 C 20.171875 -6.96875 19.445312 -4.425781 18 -2.5 C 16.5625 -0.582031 14.613281 0.375 12.15625 0.375 C 9.632812 0.375 7.65625 -0.421875 6.21875 -2.015625 L 6.21875 7.953125 L 2.671875 7.953125 L 2.671875 -20.703125 L 5.90625 -20.703125 L 6.078125 -18.40625 C 7.523438 -20.195312 9.53125 -21.09375 12.09375 -21.09375 C 14.582031 -21.09375 16.550781 -20.148438 18 -18.265625 C 19.445312 -16.390625 20.171875 -13.785156 20.171875 -10.453125 Z M 16.625 -10.53125 C 16.625 -12.863281 16.125 -14.703125 15.125 -16.046875 C 14.132812 -17.398438 12.773438 -18.078125 11.046875 -18.078125 C 8.898438 -18.078125 7.289062 -17.128906 6.21875 -15.234375 L 6.21875 -5.34375 C 7.28125 -3.445312 8.898438 -2.5 11.078125 -2.5 C 12.773438 -2.5 14.125 -3.171875 15.125 -4.515625 C 16.125 -5.867188 16.625 -7.875 16.625 -10.53125 Z M 16.625 -10.53125 "/></g></g></g><g fill="#f6971d" fill-opacity="1"><g transform="translate(549.155289, 199.184435)"><g><path d="M 6.53125 0 L 2.984375 0 L 2.984375 -20.703125 L 6.53125 -20.703125 Z M 2.703125 -26.1875 C 2.703125 -26.769531 2.875 -27.257812 3.21875 -27.65625 C 3.570312 -28.050781 4.09375 -28.25 4.78125 -28.25 C 5.46875 -28.25 5.988281 -28.050781 6.34375 -27.65625 C 6.707031 -27.257812 6.890625 -26.769531 6.890625 -26.1875 C 6.890625 -25.613281 6.707031 -25.132812 6.34375 -24.75 C 5.988281 -24.375 5.46875 -24.1875 4.78125 -24.1875 C 4.09375 -24.1875 3.570312 -24.375 3.21875 -24.75 C 2.875 -25.132812 2.703125 -25.613281 2.703125 -26.1875 Z M 2.703125 -26.1875 "/></g></g></g><g fill="#f6971d" fill-opacity="1"><g transform="translate(565.522876, 199.184435)"><g><path d="M 6.03125 -20.703125 L 6.140625 -18.09375 C 7.722656 -20.09375 9.789062 -21.09375 12.34375 -21.09375 C 16.71875 -21.09375 18.925781 -18.625 18.96875 -13.6875 L 18.96875 0 L 15.421875 0 L 15.421875 -13.703125 C 15.410156 -15.191406 15.066406 -16.289062 14.390625 -17 C 13.722656 -17.71875 12.679688 -18.078125 11.265625 -18.078125 C 10.117188 -18.078125 9.113281 -17.769531 8.25 -17.15625 C 7.382812 -16.550781 6.707031 -15.75 6.21875 -14.75 L 6.21875 0 L 2.671875 0 L 2.671875 -20.703125 Z M 6.03125 -20.703125 "/></g></g></g><g fill="#f6971d" fill-opacity="1"><g transform="translate(594.00019, 199.184435)"><g><path d="M 11.265625 0.375 C 8.460938 0.375 6.179688 -0.539062 4.421875 -2.375 C 2.660156 -4.21875 1.78125 -6.6875 1.78125 -9.78125 L 1.78125 -10.421875 C 1.78125 -12.484375 2.171875 -14.316406 2.953125 -15.921875 C 3.742188 -17.535156 4.84375 -18.800781 6.25 -19.71875 C 7.65625 -20.632812 9.179688 -21.09375 10.828125 -21.09375 C 13.523438 -21.09375 15.617188 -20.203125 17.109375 -18.421875 C 18.597656 -16.648438 19.34375 -14.113281 19.34375 -10.8125 L 19.34375 -9.34375 L 5.3125 -9.34375 C 5.363281 -7.300781 5.960938 -5.648438 7.109375 -4.390625 C 8.253906 -3.128906 9.707031 -2.5 11.46875 -2.5 C 12.71875 -2.5 13.773438 -2.753906 14.640625 -3.265625 C 15.503906 -3.773438 16.265625 -4.453125 16.921875 -5.296875 L 19.078125 -3.609375 C 17.335938 -0.953125 14.734375 0.375 11.265625 0.375 Z M 10.828125 -18.171875 C 9.398438 -18.171875 8.203125 -17.648438 7.234375 -16.609375 C 6.265625 -15.578125 5.664062 -14.125 5.4375 -12.25 L 15.8125 -12.25 L 15.8125 -12.515625 C 15.707031 -14.316406 15.21875 -15.707031 14.34375 -16.6875 C 13.476562 -17.675781 12.304688 -18.171875 10.828125 -18.171875 Z M 10.828125 -18.171875 "/></g></g></g><g fill="#f6971d" fill-opacity="1"><g transform="translate(621.616623, 199.184435)"><g><path d="M 14.734375 -5.484375 C 14.734375 -6.441406 14.375 -7.1875 13.65625 -7.71875 C 12.9375 -8.25 11.675781 -8.703125 9.875 -9.078125 C 8.082031 -9.460938 6.660156 -9.921875 5.609375 -10.453125 C 4.554688 -10.992188 3.78125 -11.632812 3.28125 -12.375 C 2.78125 -13.113281 2.53125 -13.992188 2.53125 -15.015625 C 2.53125 -16.710938 3.242188 -18.148438 4.671875 -19.328125 C 6.109375 -20.503906 7.941406 -21.09375 10.171875 -21.09375 C 12.523438 -21.09375 14.429688 -20.484375 15.890625 -19.265625 C 17.347656 -18.054688 18.078125 -16.507812 18.078125 -14.625 L 14.515625 -14.625 C 14.515625 -15.59375 14.101562 -16.425781 13.28125 -17.125 C 12.46875 -17.820312 11.429688 -18.171875 10.171875 -18.171875 C 8.890625 -18.171875 7.882812 -17.890625 7.15625 -17.328125 C 6.425781 -16.773438 6.0625 -16.046875 6.0625 -15.140625 C 6.0625 -14.285156 6.398438 -13.640625 7.078125 -13.203125 C 7.753906 -12.765625 8.972656 -12.347656 10.734375 -11.953125 C 12.503906 -11.554688 13.9375 -11.082031 15.03125 -10.53125 C 16.132812 -9.988281 16.953125 -9.332031 17.484375 -8.5625 C 18.015625 -7.789062 18.28125 -6.847656 18.28125 -5.734375 C 18.28125 -3.890625 17.535156 -2.410156 16.046875 -1.296875 C 14.566406 -0.179688 12.648438 0.375 10.296875 0.375 C 8.640625 0.375 7.171875 0.0820312 5.890625 -0.5 C 4.617188 -1.082031 3.617188 -1.898438 2.890625 -2.953125 C 2.171875 -4.003906 1.8125 -5.144531 1.8125 -6.375 L 5.359375 -6.375 C 5.421875 -5.1875 5.894531 -4.242188 6.78125 -3.546875 C 7.664062 -2.847656 8.835938 -2.5 10.296875 -2.5 C 11.628906 -2.5 12.703125 -2.769531 13.515625 -3.3125 C 14.328125 -3.863281 14.734375 -4.585938 14.734375 -5.484375 Z M 14.734375 -5.484375 "/></g></g></g><g fill="#f6971d" fill-opacity="1"><g transform="translate(648.678266, 199.184435)"><g><path d="M 14.734375 -5.484375 C 14.734375 -6.441406 14.375 -7.1875 13.65625 -7.71875 C 12.9375 -8.25 11.675781 -8.703125 9.875 -9.078125 C 8.082031 -9.460938 6.660156 -9.921875 5.609375 -10.453125 C 4.554688 -10.992188 3.78125 -11.632812 3.28125 -12.375 C 2.78125 -13.113281 2.53125 -13.992188 2.53125 -15.015625 C 2.53125 -16.710938 3.242188 -18.148438 4.671875 -19.328125 C 6.109375 -20.503906 7.941406 -21.09375 10.171875 -21.09375 C 12.523438 -21.09375 14.429688 -20.484375 15.890625 -19.265625 C 17.347656 -18.054688 18.078125 -16.507812 18.078125 -14.625 L 14.515625 -14.625 C 14.515625 -15.59375 14.101562 -16.425781 13.28125 -17.125 C 12.46875 -17.820312 11.429688 -18.171875 10.171875 -18.171875 C 8.890625 -18.171875 7.882812 -17.890625 7.15625 -17.328125 C 6.425781 -16.773438 6.0625 -16.046875 6.0625 -15.140625 C 6.0625 -14.285156 6.398438 -13.640625 7.078125 -13.203125 C 7.753906 -12.765625 8.972656 -12.347656 10.734375 -11.953125 C 12.503906 -11.554688 13.9375 -11.082031 15.03125 -10.53125 C 16.132812 -9.988281 16.953125 -9.332031 17.484375 -8.5625 C 18.015625 -7.789062 18.28125 -6.847656 18.28125 -5.734375 C 18.28125 -3.890625 17.535156 -2.410156 16.046875 -1.296875 C 14.566406 -0.179688 12.648438 0.375 10.296875 0.375 C 8.640625 0.375 7.171875 0.0820312 5.890625 -0.5 C 4.617188 -1.082031 3.617188 -1.898438 2.890625 -2.953125 C 2.171875 -4.003906 1.8125 -5.144531 1.8125 -6.375 L 5.359375 -6.375 C 5.421875 -5.1875 5.894531 -4.242188 6.78125 -3.546875 C 7.664062 -2.847656 8.835938 -2.5 10.296875 -2.5 C 11.628906 -2.5 12.703125 -2.769531 13.515625 -3.3125 C 14.328125 -3.863281 14.734375 -4.585938 14.734375 -5.484375 Z M 14.734375 -5.484375 "/></g></g></g></svg>