<svg xmlns="http://www.w3.org/2000/svg" xmlns:xlink="http://www.w3.org/1999/xlink" width="800" zoomAndPan="magnify" viewBox="0 0 600 599.999999" height="800" preserveAspectRatio="xMidYMid meet" version="1.0"><defs><clipPath id="284fcf5d98"><path d="M 300 0 C 134.316406 0 0 134.316406 0 300 C 0 465.683594 134.316406 600 300 600 C 465.683594 600 600 465.683594 600 300 C 600 134.316406 465.683594 0 300 0 Z M 300 0 " clip-rule="nonzero"/></clipPath><clipPath id="836fb172be"><path d="M 1 148.449219 L 549 148.449219 L 549 562.449219 L 1 562.449219 Z M 1 148.449219 " clip-rule="nonzero"/></clipPath></defs><g clip-path="url(#284fcf5d98)"><rect x="-60" width="720" fill="#f6971d" y="-60" height="719.999999" fill-opacity="1"/></g><g clip-path="url(#836fb172be)"><path fill="#ffffff" d="M 130.371094 182.480469 L 1.003906 182.480469 C 1.003906 165.929688 14.511719 152.289062 31.328125 152.289062 L 136.464844 152.289062 C 150.765625 152.289062 162.945312 161.558594 166.125 175.464844 L 206.378906 369.847656 C 207.039062 373.289062 210.085938 375.539062 213.527344 375.539062 L 494.246094 374.480469 C 508.8125 374.480469 522.183594 380.308594 531.984375 389.972656 C 541.648438 399.507812 547.871094 412.878906 548.003906 427.578125 L 548.003906 429.035156 C 548.535156 465.183594 517.285156 492.59375 480.472656 480.015625 C 434.527344 464.257812 350.179688 432.875 177.378906 464.390625 C 277.882812 427.050781 385.664062 420.691406 486.960938 450.484375 C 505.234375 455.914062 518.210938 447.96875 517.816406 429.433594 L 517.816406 427.976562 C 517.816406 421.621094 515.035156 415.792969 510.796875 411.554688 C 506.425781 407.320312 500.601562 404.804688 494.246094 404.804688 L 207.4375 405.863281 C 194.460938 405.863281 182.941406 397.257812 180.292969 384.410156 L 139.90625 190.027344 C 139.113281 185.527344 135.007812 182.480469 130.636719 182.480469 Z M 299.199219 297.285156 C 315.222656 297.945312 328.464844 298.210938 340.644531 298.210938 C 339.851562 291.324219 339.851562 284.175781 340.644531 276.628906 C 327.535156 275.433594 315.617188 273.183594 305.6875 270.007812 C 319.195312 270.667969 330.582031 270.933594 341.308594 270.933594 C 342.367188 264.046875 344.089844 256.898438 346.605469 250.011719 C 328.992188 247.761719 312.972656 243.390625 301.320312 238.492188 C 319.722656 242.464844 333.363281 244.316406 348.324219 245.378906 C 349.78125 241.667969 351.503906 237.960938 353.355469 234.386719 C 352.828125 238.359375 352.296875 242.066406 351.902344 245.511719 C 361.035156 246.171875 370.835938 246.4375 382.753906 246.703125 C 384.605469 241.273438 386.59375 235.710938 389.242188 230.414062 C 388.445312 236.242188 387.917969 241.933594 387.121094 246.964844 C 393.214844 247.097656 399.835938 247.230469 407.25 247.628906 C 400.628906 249.351562 393.742188 250.410156 386.59375 251.070312 C 385.796875 257.957031 385.003906 264.046875 384.605469 269.875 C 394.273438 269.210938 404.867188 268.417969 417.179688 267.492188 C 418.902344 253.984375 422.742188 239.949219 428.964844 226.574219 C 426.847656 243.257812 425.257812 255.96875 424.332031 266.960938 C 432.671875 266.167969 441.808594 265.371094 451.871094 264.710938 C 442.605469 267.492188 433.335938 270.007812 423.800781 271.992188 C 423.269531 279.804688 422.742188 286.824219 422.609375 293.839844 C 429.628906 293.3125 437.175781 292.648438 445.382812 292.121094 C 437.835938 294.371094 430.023438 296.488281 422.476562 298.210938 C 422.476562 307.347656 422.742188 317.144531 423.402344 329.0625 C 419.695312 320.851562 417.179688 310.65625 416.121094 299.535156 C 405 301.785156 393.875 303.375 382.753906 304.300781 C 382.886719 311.453125 383.148438 319.398438 383.679688 328.53125 C 380.5 321.914062 378.117188 313.703125 376.925781 304.699219 C 366.730469 305.359375 356.667969 305.492188 347.132812 305.097656 C 347.132812 310.921875 347.398438 317.011719 347.929688 324.429688 C 345.148438 318.734375 342.765625 312.113281 341.570312 304.832031 C 325.550781 303.773438 311.117188 301.257812 299.332031 297.546875 Z M 382.886719 296.621094 C 392.683594 296.09375 403.410156 295.164062 415.855469 294.238281 C 415.460938 287.484375 415.589844 280.335938 416.386719 273.183594 C 405.394531 275.039062 394.40625 276.496094 383.8125 277.15625 C 383.28125 283.910156 383.019531 290.265625 382.886719 296.621094 Z M 348.589844 270.933594 C 358.257812 270.933594 367.394531 270.667969 377.191406 270.140625 C 378.117188 263.914062 379.308594 257.691406 381.164062 251.335938 C 371.234375 252 361.035156 251.46875 351.105469 250.410156 C 350.046875 258.222656 349.382812 264.84375 348.589844 270.800781 Z M 347 298.210938 C 356.535156 297.945312 365.9375 297.679688 376.265625 297.152344 C 375.867188 290.796875 375.867188 284.308594 376.265625 277.554688 C 366.597656 277.953125 356.933594 277.820312 347.929688 277.289062 C 347.265625 284.570312 346.867188 291.058594 346.867188 298.210938 Z M 383.28125 521.988281 C 383.28125 544.234375 401.289062 562.109375 423.667969 562.109375 C 446.046875 562.109375 463.789062 544.101562 463.789062 521.988281 C 463.789062 499.875 445.78125 481.601562 423.667969 481.601562 C 401.554688 481.601562 383.28125 499.742188 383.28125 521.988281 Z M 279.207031 479.617188 C 256.960938 479.617188 238.953125 497.625 238.953125 519.871094 C 238.953125 542.117188 257.09375 560.125 279.207031 560.125 C 301.320312 560.125 319.460938 542.117188 319.460938 519.871094 C 319.460938 497.625 301.320312 479.617188 279.207031 479.617188 Z M 496.894531 360.972656 L 496.097656 345.085938 C 493.054688 281.921875 511.457031 234.253906 524.433594 200.222656 C 527.746094 191.882812 530.527344 184.46875 532.117188 179.566406 L 542.839844 148.449219 L 512.121094 160.632812 C 445.253906 187.378906 358.386719 241.667969 243.1875 168.046875 C 326.742188 245.113281 401.953125 228.691406 492.257812 199.960938 C 479.945312 232.535156 465.644531 275.433594 465.511719 330.652344 L 219.488281 357.796875 Z M 496.894531 360.972656 " fill-opacity="1" fill-rule="nonzero"/></g></svg>