<svg xmlns="http://www.w3.org/2000/svg" xmlns:xlink="http://www.w3.org/1999/xlink" width="900" zoomAndPan="magnify" viewBox="0 0 675 299.999988" height="400" preserveAspectRatio="xMidYMid meet" version="1.0"><defs><g/><clipPath id="a7dca08a5f"><path d="M 11 45 L 171 45 L 171 293 L 11 293 Z M 11 45 " clip-rule="nonzero"/></clipPath><clipPath id="d8a6289f2b"><path d="M -21.757812 51.492188 L 249.960938 -26.71875 L 328.378906 245.71875 L 56.664062 323.933594 Z M -21.757812 51.492188 " clip-rule="nonzero"/></clipPath><clipPath id="cd97068a4d"><path d="M -21.757812 51.492188 L 249.960938 -26.71875 L 328.378906 245.71875 L 56.664062 323.933594 Z M -21.757812 51.492188 " clip-rule="nonzero"/></clipPath><clipPath id="ba3873ad5f"><path d="M 45 13 L 183 13 L 183 269 L 45 269 Z M 45 13 " clip-rule="nonzero"/></clipPath><clipPath id="8dd449e317"><path d="M -21.757812 51.492188 L 249.960938 -26.71875 L 328.378906 245.71875 L 56.664062 323.933594 Z M -21.757812 51.492188 " clip-rule="nonzero"/></clipPath><clipPath id="8b58558efd"><path d="M -21.757812 51.492188 L 249.960938 -26.71875 L 328.378906 245.71875 L 56.664062 323.933594 Z M -21.757812 51.492188 " clip-rule="nonzero"/></clipPath><clipPath id="905fdee19c"><path d="M 72 47 L 259 47 L 259 218 L 72 218 Z M 72 47 " clip-rule="nonzero"/></clipPath><clipPath id="7a78a0758e"><path d="M -21.757812 51.492188 L 249.960938 -26.71875 L 328.378906 245.71875 L 56.664062 323.933594 Z M -21.757812 51.492188 " clip-rule="nonzero"/></clipPath><clipPath id="21efaf3a15"><path d="M -21.757812 51.492188 L 249.960938 -26.71875 L 328.378906 245.71875 L 56.664062 323.933594 Z M -21.757812 51.492188 " clip-rule="nonzero"/></clipPath><clipPath id="5d84625f2a"><path d="M 86 89 L 227 89 L 227 176 L 86 176 Z M 86 89 " clip-rule="nonzero"/></clipPath><clipPath id="7c48f05d02"><path d="M -21.757812 51.492188 L 249.960938 -26.71875 L 328.378906 245.71875 L 56.664062 323.933594 Z M -21.757812 51.492188 " clip-rule="nonzero"/></clipPath><clipPath id="595269852b"><path d="M -21.757812 51.492188 L 249.960938 -26.71875 L 328.378906 245.71875 L 56.664062 323.933594 Z M -21.757812 51.492188 " clip-rule="nonzero"/></clipPath><clipPath id="70e1be4633"><path d="M 186 9 L 211 9 L 211 33 L 186 33 Z M 186 9 " clip-rule="nonzero"/></clipPath><clipPath id="e2317623c1"><path d="M -21.757812 51.492188 L 249.960938 -26.71875 L 328.378906 245.71875 L 56.664062 323.933594 Z M -21.757812 51.492188 " clip-rule="nonzero"/></clipPath><clipPath id="2d394076ae"><path d="M -21.757812 51.492188 L 249.960938 -26.71875 L 328.378906 245.71875 L 56.664062 323.933594 Z M -21.757812 51.492188 " clip-rule="nonzero"/></clipPath><clipPath id="6af451e16c"><path d="M 257 72 L 282 72 L 282 96 L 257 96 Z M 257 72 " clip-rule="nonzero"/></clipPath><clipPath id="4345bd82e6"><path d="M -21.757812 51.492188 L 249.960938 -26.71875 L 328.378906 245.71875 L 56.664062 323.933594 Z M -21.757812 51.492188 " clip-rule="nonzero"/></clipPath><clipPath id="507f7a0292"><path d="M -21.757812 51.492188 L 249.960938 -26.71875 L 328.378906 245.71875 L 56.664062 323.933594 Z M -21.757812 51.492188 " clip-rule="nonzero"/></clipPath><clipPath id="c904ff0c91"><path d="M 228 99 L 253 99 L 253 123 L 228 123 Z M 228 99 " clip-rule="nonzero"/></clipPath><clipPath id="3847962301"><path d="M -21.757812 51.492188 L 249.960938 -26.71875 L 328.378906 245.71875 L 56.664062 323.933594 Z M -21.757812 51.492188 " clip-rule="nonzero"/></clipPath><clipPath id="1a7a477f85"><path d="M -21.757812 51.492188 L 249.960938 -26.71875 L 328.378906 245.71875 L 56.664062 323.933594 Z M -21.757812 51.492188 " clip-rule="nonzero"/></clipPath><clipPath id="ec8ba04823"><path d="M 218 30 L 232 30 L 232 44 L 218 44 Z M 218 30 " clip-rule="nonzero"/></clipPath><clipPath id="fa3df886e8"><path d="M -21.757812 51.492188 L 249.960938 -26.71875 L 328.378906 245.71875 L 56.664062 323.933594 Z M -21.757812 51.492188 " clip-rule="nonzero"/></clipPath><clipPath id="c942bf8393"><path d="M -21.757812 51.492188 L 249.960938 -26.71875 L 328.378906 245.71875 L 56.664062 323.933594 Z M -21.757812 51.492188 " clip-rule="nonzero"/></clipPath><clipPath id="3c9cdd3968"><path d="M 265 109 L 279 109 L 279 123 L 265 123 Z M 265 109 " clip-rule="nonzero"/></clipPath><clipPath id="4796c4999d"><path d="M -21.757812 51.492188 L 249.960938 -26.71875 L 328.378906 245.71875 L 56.664062 323.933594 Z M -21.757812 51.492188 " clip-rule="nonzero"/></clipPath><clipPath id="39ad434656"><path d="M -21.757812 51.492188 L 249.960938 -26.71875 L 328.378906 245.71875 L 56.664062 323.933594 Z M -21.757812 51.492188 " clip-rule="nonzero"/></clipPath><clipPath id="7296f57268"><path d="M 93 16 L 107 16 L 107 30 L 93 30 Z M 93 16 " clip-rule="nonzero"/></clipPath><clipPath id="8d7372a9c0"><path d="M -21.757812 51.492188 L 249.960938 -26.71875 L 328.378906 245.71875 L 56.664062 323.933594 Z M -21.757812 51.492188 " clip-rule="nonzero"/></clipPath><clipPath id="1d45824976"><path d="M -21.757812 51.492188 L 249.960938 -26.71875 L 328.378906 245.71875 L 56.664062 323.933594 Z M -21.757812 51.492188 " clip-rule="nonzero"/></clipPath><clipPath id="5f404cf87a"><path d="M 63 23 L 88 23 L 88 48 L 63 48 Z M 63 23 " clip-rule="nonzero"/></clipPath><clipPath id="fa1eb14a3d"><path d="M -21.757812 51.492188 L 249.960938 -26.71875 L 328.378906 245.71875 L 56.664062 323.933594 Z M -21.757812 51.492188 " clip-rule="nonzero"/></clipPath><clipPath id="0a52d659b3"><path d="M -21.757812 51.492188 L 249.960938 -26.71875 L 328.378906 245.71875 L 56.664062 323.933594 Z M -21.757812 51.492188 " clip-rule="nonzero"/></clipPath></defs><g clip-path="url(#a7dca08a5f)"><g clip-path="url(#d8a6289f2b)"><g clip-path="url(#cd97068a4d)"><path fill="#19202b" d="M 65.785156 47.960938 C 69.378906 51.585938 69.644531 57.394531 66.402344 61.238281 C 37.765625 95.199219 26.167969 143.109375 39.636719 189.90625 C 57.121094 250.648438 111.398438 290.523438 170.03125 290.980469 C 103.074219 299.617188 37.503906 256.871094 17.71875 188.140625 C 2.785156 136.257812 17.828125 83.035156 52.460938 47.898438 C 56.113281 44.183594 62.058594 44.203125 65.785156 47.960938 Z M 65.785156 47.960938 " fill-opacity="1" fill-rule="nonzero"/></g></g></g><g clip-path="url(#ba3873ad5f)"><g clip-path="url(#8dd449e317)"><g clip-path="url(#8b58558efd)"><path fill="#ffffff" d="M 182.476562 21.703125 C 182.976562 26.664062 179.53125 31.15625 174.609375 31.96875 C 131.160156 39.140625 92.09375 67.457031 73.085938 110.796875 C 48.417969 167.046875 65.265625 231.027344 110.253906 268.429688 C 53.128906 232.527344 29.359375 159.269531 57.277344 95.617188 C 78.347656 47.582031 123.398438 17.484375 172.222656 13.230469 C 177.382812 12.78125 181.957031 16.546875 182.476562 21.703125 Z M 182.476562 21.703125 " fill-opacity="1" fill-rule="nonzero"/></g></g></g><g clip-path="url(#905fdee19c)"><g clip-path="url(#7a78a0758e)"><g clip-path="url(#21efaf3a15)"><path fill="#19202b" d="M 257.683594 74.65625 C 255.582031 78.511719 250.847656 80.058594 246.863281 78.199219 C 211.753906 61.804688 169.320312 62.945312 133.980469 84.957031 C 88.105469 113.53125 68.53125 168.355469 82.601562 217.867188 C 58.976562 163.410156 78.140625 98.414062 130.046875 66.089844 C 169.226562 41.683594 216.890625 42.234375 254.445312 63.410156 C 258.421875 65.648438 259.863281 70.65625 257.683594 74.65625 Z M 257.683594 74.65625 " fill-opacity="1" fill-rule="nonzero"/></g></g></g><g clip-path="url(#5d84625f2a)"><g clip-path="url(#7c48f05d02)"><g clip-path="url(#595269852b)"><path fill="#ffffff" d="M 225.964844 103.796875 C 224.445312 108 219.960938 110.359375 215.644531 109.183594 C 208.988281 107.378906 202.066406 106.191406 194.925781 105.695312 C 146.191406 102.292969 102.800781 132.050781 86.851562 175.765625 C 98.429688 123.363281 146.914062 85.941406 202.054688 89.792969 C 208.136719 90.214844 214.0625 91.125 219.800781 92.480469 C 224.832031 93.671875 227.71875 98.945312 225.964844 103.796875 Z M 225.964844 103.796875 " fill-opacity="1" fill-rule="nonzero"/></g></g></g><g clip-path="url(#70e1be4633)"><g clip-path="url(#e2317623c1)"><g clip-path="url(#2d394076ae)"><path fill="#19202b" d="M 209.71875 17.828125 C 209.933594 18.570312 210.074219 19.328125 210.136719 20.101562 C 210.203125 20.875 210.191406 21.644531 210.105469 22.414062 C 210.015625 23.183594 209.855469 23.9375 209.621094 24.675781 C 209.386719 25.414062 209.078125 26.125 208.703125 26.800781 C 208.328125 27.480469 207.890625 28.117188 207.390625 28.707031 C 206.890625 29.300781 206.339844 29.835938 205.734375 30.320312 C 205.128906 30.804688 204.480469 31.222656 203.792969 31.578125 C 203.101562 31.933594 202.386719 32.21875 201.640625 32.433594 C 200.898438 32.648438 200.136719 32.785156 199.367188 32.851562 C 198.59375 32.917969 197.824219 32.90625 197.050781 32.820312 C 196.28125 32.730469 195.527344 32.570312 194.789062 32.335938 C 194.050781 32.097656 193.34375 31.792969 192.664062 31.417969 C 191.988281 31.042969 191.351562 30.605469 190.761719 30.105469 C 190.167969 29.605469 189.628906 29.054688 189.148438 28.449219 C 188.664062 27.839844 188.246094 27.195312 187.890625 26.503906 C 187.535156 25.816406 187.25 25.101562 187.035156 24.355469 C 186.820312 23.609375 186.679688 22.851562 186.617188 22.082031 C 186.550781 21.308594 186.5625 20.535156 186.648438 19.765625 C 186.734375 18.996094 186.898438 18.242188 187.132812 17.503906 C 187.367188 16.765625 187.671875 16.058594 188.046875 15.378906 C 188.421875 14.703125 188.859375 14.066406 189.359375 13.472656 C 189.863281 12.882812 190.414062 12.34375 191.019531 11.863281 C 191.625 11.378906 192.273438 10.960938 192.960938 10.605469 C 193.652344 10.25 194.367188 9.964844 195.113281 9.75 C 195.855469 9.535156 196.617188 9.394531 197.386719 9.332031 C 198.160156 9.265625 198.929688 9.277344 199.699219 9.363281 C 200.472656 9.449219 201.226562 9.613281 201.964844 9.847656 C 202.703125 10.082031 203.410156 10.386719 204.089844 10.761719 C 204.765625 11.136719 205.402344 11.574219 205.992188 12.074219 C 206.585938 12.574219 207.121094 13.128906 207.605469 13.734375 C 208.089844 14.339844 208.507812 14.988281 208.863281 15.675781 C 209.21875 16.363281 209.503906 17.082031 209.71875 17.828125 Z M 209.71875 17.828125 " fill-opacity="1" fill-rule="nonzero"/></g></g></g><g clip-path="url(#6af451e16c)"><g clip-path="url(#4345bd82e6)"><g clip-path="url(#507f7a0292)"><path fill="#ffffff" d="M 280.570312 80.808594 C 280.78125 81.554688 280.921875 82.3125 280.988281 83.085938 C 281.050781 83.855469 281.042969 84.628906 280.953125 85.398438 C 280.867188 86.167969 280.707031 86.921875 280.46875 87.660156 C 280.234375 88.398438 279.929688 89.105469 279.554688 89.785156 C 279.179688 90.464844 278.742188 91.097656 278.242188 91.691406 C 277.742188 92.28125 277.1875 92.820312 276.582031 93.300781 C 275.976562 93.785156 275.328125 94.203125 274.640625 94.558594 C 273.953125 94.914062 273.234375 95.199219 272.492188 95.414062 C 271.746094 95.628906 270.988281 95.769531 270.214844 95.835938 C 269.445312 95.898438 268.671875 95.886719 267.902344 95.800781 C 267.132812 95.714844 266.378906 95.554688 265.640625 95.316406 C 264.902344 95.082031 264.195312 94.777344 263.515625 94.402344 C 262.835938 94.027344 262.203125 93.589844 261.609375 93.089844 C 261.019531 92.589844 260.480469 92.035156 259.996094 91.429688 C 259.515625 90.824219 259.09375 90.175781 258.738281 89.488281 C 258.382812 88.800781 258.097656 88.082031 257.886719 87.339844 C 257.671875 86.59375 257.53125 85.835938 257.464844 85.0625 C 257.402344 84.289062 257.410156 83.519531 257.5 82.75 C 257.585938 81.980469 257.746094 81.226562 257.984375 80.488281 C 258.21875 79.75 258.523438 79.039062 258.898438 78.363281 C 259.273438 77.683594 259.710938 77.050781 260.210938 76.457031 C 260.710938 75.863281 261.265625 75.328125 261.871094 74.84375 C 262.476562 74.363281 263.125 73.941406 263.8125 73.585938 C 264.5 73.230469 265.21875 72.945312 265.960938 72.730469 C 266.707031 72.515625 267.464844 72.378906 268.238281 72.3125 C 269.007812 72.246094 269.78125 72.257812 270.550781 72.347656 C 271.320312 72.433594 272.074219 72.59375 272.8125 72.828125 C 273.550781 73.066406 274.261719 73.371094 274.9375 73.746094 C 275.617188 74.121094 276.25 74.558594 276.84375 75.058594 C 277.433594 75.558594 277.972656 76.109375 278.457031 76.71875 C 278.9375 77.324219 279.359375 77.96875 279.714844 78.660156 C 280.070312 79.347656 280.355469 80.0625 280.570312 80.808594 Z M 280.570312 80.808594 " fill-opacity="1" fill-rule="nonzero"/></g></g></g><g clip-path="url(#c904ff0c91)"><g clip-path="url(#3847962301)"><g clip-path="url(#1a7a477f85)"><path fill="#19202b" d="M 251.664062 107.703125 C 251.878906 108.445312 252.019531 109.203125 252.082031 109.976562 C 252.148438 110.75 252.136719 111.519531 252.050781 112.289062 C 251.964844 113.0625 251.800781 113.816406 251.566406 114.554688 C 251.332031 115.292969 251.027344 116 250.652344 116.679688 C 250.277344 117.355469 249.839844 117.992188 249.339844 118.582031 C 248.839844 119.175781 248.285156 119.710938 247.679688 120.195312 C 247.074219 120.679688 246.425781 121.097656 245.738281 121.453125 C 245.046875 121.808594 244.332031 122.09375 243.585938 122.308594 C 242.84375 122.523438 242.085938 122.664062 241.3125 122.726562 C 240.539062 122.792969 239.769531 122.78125 239 122.695312 C 238.226562 122.605469 237.472656 122.445312 236.734375 122.210938 C 235.996094 121.976562 235.289062 121.667969 234.609375 121.292969 C 233.933594 120.917969 233.296875 120.480469 232.707031 119.980469 C 232.113281 119.480469 231.578125 118.929688 231.09375 118.324219 C 230.609375 117.71875 230.191406 117.070312 229.835938 116.382812 C 229.480469 115.691406 229.195312 114.976562 228.980469 114.230469 C 228.765625 113.488281 228.625 112.726562 228.5625 111.957031 C 228.496094 111.183594 228.507812 110.414062 228.59375 109.640625 C 228.683594 108.871094 228.84375 108.117188 229.078125 107.378906 C 229.3125 106.640625 229.621094 105.933594 229.996094 105.253906 C 230.371094 104.578125 230.808594 103.941406 231.308594 103.351562 C 231.808594 102.757812 232.359375 102.21875 232.964844 101.738281 C 233.570312 101.253906 234.21875 100.835938 234.90625 100.480469 C 235.597656 100.125 236.3125 99.839844 237.058594 99.625 C 237.800781 99.410156 238.5625 99.269531 239.332031 99.207031 C 240.105469 99.140625 240.875 99.152344 241.648438 99.238281 C 242.417969 99.324219 243.171875 99.488281 243.910156 99.722656 C 244.648438 99.957031 245.355469 100.261719 246.035156 100.636719 C 246.710938 101.011719 247.347656 101.449219 247.9375 101.949219 C 248.53125 102.449219 249.070312 103.003906 249.550781 103.609375 C 250.035156 104.214844 250.453125 104.863281 250.808594 105.550781 C 251.164062 106.242188 251.449219 106.957031 251.664062 107.703125 Z M 251.664062 107.703125 " fill-opacity="1" fill-rule="nonzero"/></g></g></g><g clip-path="url(#ec8ba04823)"><g clip-path="url(#fa3df886e8)"><g clip-path="url(#c942bf8393)"><path fill="#ffffff" d="M 230.753906 35.007812 C 230.871094 35.414062 230.945312 35.824219 230.980469 36.242188 C 231.015625 36.664062 231.011719 37.082031 230.964844 37.5 C 230.917969 37.917969 230.828125 38.328125 230.703125 38.726562 C 230.574219 39.128906 230.40625 39.511719 230.203125 39.878906 C 230 40.25 229.761719 40.59375 229.492188 40.914062 C 229.21875 41.238281 228.917969 41.527344 228.589844 41.789062 C 228.261719 42.054688 227.910156 42.28125 227.535156 42.472656 C 227.164062 42.667969 226.773438 42.820312 226.371094 42.9375 C 225.964844 43.054688 225.554688 43.128906 225.132812 43.164062 C 224.714844 43.199219 224.296875 43.195312 223.878906 43.148438 C 223.460938 43.101562 223.050781 43.011719 222.648438 42.882812 C 222.25 42.757812 221.863281 42.589844 221.496094 42.386719 C 221.128906 42.183594 220.785156 41.945312 220.460938 41.675781 C 220.140625 41.402344 219.847656 41.101562 219.585938 40.773438 C 219.324219 40.445312 219.097656 40.09375 218.902344 39.71875 C 218.710938 39.347656 218.554688 38.957031 218.441406 38.550781 C 218.324219 38.148438 218.246094 37.738281 218.210938 37.316406 C 218.175781 36.898438 218.183594 36.480469 218.230469 36.0625 C 218.277344 35.644531 218.363281 35.234375 218.492188 34.832031 C 218.621094 34.433594 218.785156 34.046875 218.988281 33.679688 C 219.195312 33.3125 219.429688 32.964844 219.703125 32.644531 C 219.972656 32.324219 220.273438 32.03125 220.601562 31.769531 C 220.933594 31.507812 221.285156 31.28125 221.65625 31.085938 C 222.03125 30.894531 222.421875 30.738281 222.824219 30.621094 C 223.230469 30.507812 223.640625 30.429688 224.058594 30.394531 C 224.480469 30.359375 224.898438 30.367188 225.316406 30.414062 C 225.734375 30.460938 226.144531 30.546875 226.542969 30.675781 C 226.945312 30.804688 227.328125 30.96875 227.699219 31.171875 C 228.066406 31.375 228.410156 31.613281 228.730469 31.886719 C 229.054688 32.15625 229.34375 32.457031 229.609375 32.785156 C 229.871094 33.117188 230.097656 33.46875 230.289062 33.839844 C 230.484375 34.214844 230.636719 34.605469 230.753906 35.007812 Z M 230.753906 35.007812 " fill-opacity="1" fill-rule="nonzero"/></g></g></g><g clip-path="url(#3c9cdd3968)"><g clip-path="url(#4796c4999d)"><g clip-path="url(#39ad434656)"><path fill="#ffffff" d="M 277.875 114.113281 C 277.988281 114.515625 278.066406 114.925781 278.101562 115.347656 C 278.136719 115.765625 278.128906 116.183594 278.082031 116.601562 C 278.035156 117.019531 277.949219 117.429688 277.820312 117.832031 C 277.691406 118.230469 277.527344 118.617188 277.324219 118.984375 C 277.121094 119.351562 276.882812 119.699219 276.609375 120.019531 C 276.339844 120.339844 276.039062 120.632812 275.710938 120.894531 C 275.378906 121.15625 275.027344 121.382812 274.65625 121.578125 C 274.28125 121.769531 273.890625 121.925781 273.488281 122.042969 C 273.082031 122.15625 272.671875 122.234375 272.253906 122.269531 C 271.832031 122.304688 271.414062 122.296875 270.996094 122.25 C 270.578125 122.203125 270.167969 122.117188 269.769531 121.988281 C 269.367188 121.859375 268.984375 121.695312 268.613281 121.492188 C 268.246094 121.289062 267.902344 121.050781 267.582031 120.777344 C 267.257812 120.507812 266.96875 120.207031 266.707031 119.878906 C 266.441406 119.546875 266.214844 119.195312 266.023438 118.824219 C 265.828125 118.449219 265.675781 118.058594 265.558594 117.65625 C 265.441406 117.25 265.367188 116.839844 265.332031 116.421875 C 265.296875 116 265.300781 115.582031 265.347656 115.164062 C 265.394531 114.746094 265.484375 114.335938 265.613281 113.9375 C 265.738281 113.535156 265.90625 113.152344 266.109375 112.785156 C 266.3125 112.414062 266.550781 112.070312 266.820312 111.75 C 267.09375 111.425781 267.394531 111.136719 267.722656 110.875 C 268.050781 110.609375 268.402344 110.382812 268.777344 110.191406 C 269.148438 109.996094 269.539062 109.84375 269.945312 109.726562 C 270.347656 109.609375 270.757812 109.535156 271.179688 109.5 C 271.597656 109.464844 272.015625 109.46875 272.433594 109.515625 C 272.851562 109.5625 273.261719 109.652344 273.664062 109.78125 C 274.0625 109.90625 274.449219 110.074219 274.816406 110.277344 C 275.183594 110.480469 275.53125 110.71875 275.851562 110.988281 C 276.171875 111.261719 276.464844 111.5625 276.726562 111.890625 C 276.988281 112.21875 277.214844 112.570312 277.410156 112.945312 C 277.601562 113.316406 277.757812 113.707031 277.875 114.113281 Z M 277.875 114.113281 " fill-opacity="1" fill-rule="nonzero"/></g></g></g><g clip-path="url(#7296f57268)"><g clip-path="url(#8d7372a9c0)"><g clip-path="url(#1d45824976)"><path fill="#19202b" d="M 105.777344 21.453125 C 105.894531 21.855469 105.96875 22.265625 106.003906 22.6875 C 106.039062 23.105469 106.035156 23.523438 105.988281 23.941406 C 105.941406 24.359375 105.851562 24.769531 105.722656 25.171875 C 105.597656 25.570312 105.429688 25.957031 105.226562 26.324219 C 105.023438 26.691406 104.785156 27.039062 104.515625 27.359375 C 104.242188 27.679688 103.941406 27.972656 103.613281 28.234375 C 103.285156 28.496094 102.933594 28.722656 102.558594 28.917969 C 102.1875 29.109375 101.796875 29.265625 101.390625 29.378906 C 100.988281 29.496094 100.578125 29.574219 100.15625 29.609375 C 99.738281 29.644531 99.320312 29.636719 98.902344 29.589844 C 98.484375 29.542969 98.074219 29.457031 97.671875 29.328125 C 97.273438 29.199219 96.886719 29.035156 96.519531 28.832031 C 96.152344 28.628906 95.804688 28.390625 95.484375 28.117188 C 95.164062 27.847656 94.871094 27.546875 94.609375 27.21875 C 94.347656 26.886719 94.121094 26.535156 93.925781 26.164062 C 93.734375 25.789062 93.578125 25.398438 93.460938 24.996094 C 93.347656 24.589844 93.269531 24.179688 93.234375 23.761719 C 93.199219 23.339844 93.207031 22.921875 93.253906 22.503906 C 93.300781 22.085938 93.386719 21.675781 93.515625 21.277344 C 93.644531 20.875 93.808594 20.492188 94.011719 20.121094 C 94.214844 19.753906 94.453125 19.410156 94.726562 19.089844 C 94.996094 18.765625 95.296875 18.476562 95.625 18.214844 C 95.957031 17.949219 96.304688 17.722656 96.679688 17.53125 C 97.054688 17.335938 97.441406 17.183594 97.847656 17.066406 C 98.25 16.949219 98.664062 16.875 99.082031 16.839844 C 99.503906 16.804688 99.921875 16.808594 100.339844 16.855469 C 100.757812 16.902344 101.167969 16.992188 101.566406 17.121094 C 101.96875 17.246094 102.351562 17.414062 102.71875 17.617188 C 103.089844 17.820312 103.433594 18.058594 103.753906 18.328125 C 104.078125 18.601562 104.367188 18.902344 104.628906 19.230469 C 104.890625 19.558594 105.121094 19.910156 105.3125 20.285156 C 105.507812 20.65625 105.660156 21.046875 105.777344 21.453125 Z M 105.777344 21.453125 " fill-opacity="1" fill-rule="nonzero"/></g></g></g><g clip-path="url(#5f404cf87a)"><g clip-path="url(#fa1eb14a3d)"><g clip-path="url(#0a52d659b3)"><path fill="#ffffff" d="M 86.824219 32.519531 C 87.039062 33.265625 87.179688 34.023438 87.242188 34.796875 C 87.308594 35.566406 87.296875 36.339844 87.210938 37.109375 C 87.125 37.878906 86.960938 38.632812 86.726562 39.371094 C 86.492188 40.109375 86.1875 40.816406 85.8125 41.496094 C 85.4375 42.175781 85 42.808594 84.5 43.402344 C 84 43.992188 83.445312 44.53125 82.839844 45.015625 C 82.234375 45.496094 81.585938 45.917969 80.898438 46.273438 C 80.207031 46.628906 79.492188 46.914062 78.746094 47.125 C 78.003906 47.339844 77.246094 47.480469 76.472656 47.546875 C 75.699219 47.609375 74.929688 47.601562 74.160156 47.511719 C 73.390625 47.425781 72.632812 47.265625 71.894531 47.027344 C 71.15625 46.792969 70.449219 46.488281 69.773438 46.113281 C 69.09375 45.738281 68.457031 45.300781 67.867188 44.800781 C 67.273438 44.300781 66.738281 43.746094 66.253906 43.140625 C 65.769531 42.535156 65.351562 41.886719 64.996094 41.199219 C 64.640625 40.511719 64.355469 39.792969 64.140625 39.050781 C 63.925781 38.304688 63.789062 37.546875 63.722656 36.773438 C 63.65625 36.003906 63.667969 35.230469 63.753906 34.460938 C 63.84375 33.691406 64.003906 32.9375 64.238281 32.199219 C 64.472656 31.460938 64.78125 30.753906 65.15625 30.074219 C 65.53125 29.394531 65.96875 28.761719 66.46875 28.167969 C 66.96875 27.578125 67.519531 27.039062 68.125 26.554688 C 68.734375 26.074219 69.378906 25.652344 70.070312 25.296875 C 70.757812 24.941406 71.472656 24.65625 72.21875 24.445312 C 72.964844 24.230469 73.722656 24.089844 74.492188 24.023438 C 75.265625 23.960938 76.035156 23.96875 76.808594 24.058594 C 77.578125 24.144531 78.332031 24.304688 79.070312 24.542969 C 79.808594 24.777344 80.515625 25.082031 81.195312 25.457031 C 81.871094 25.832031 82.507812 26.269531 83.097656 26.769531 C 83.691406 27.269531 84.230469 27.824219 84.710938 28.429688 C 85.195312 29.035156 85.613281 29.683594 85.96875 30.371094 C 86.324219 31.058594 86.609375 31.777344 86.824219 32.519531 Z M 86.824219 32.519531 " fill-opacity="1" fill-rule="nonzero"/></g></g></g><g fill="#ffffff" fill-opacity="1"><g transform="translate(153.145856, 240.352589)"><g><path d="M 61.078125 -94.71875 L 61.078125 -75.78125 L 28.46875 -75.78125 L 28.46875 -56.953125 L 59.703125 -56.953125 L 59.703125 -38 L 28.46875 -38 L 28.46875 -18.9375 L 61.078125 -18.9375 L 61.078125 0 L 6.890625 0 L 6.890625 -94.71875 Z M 61.078125 -94.71875 "/></g></g></g><g fill="#ffffff" fill-opacity="1"><g transform="translate(219.726958, 240.352589)"><g><path d="M 6.890625 0 L 6.890625 -98.734375 L 27.203125 -98.734375 L 27.203125 0 Z M 6.890625 0 "/></g></g></g><g fill="#ffffff" fill-opacity="1"><g transform="translate(253.821063, 240.352589)"><g><path d="M 66.46875 -26.640625 L 23.765625 -26.640625 C 23.765625 -22.503906 25.101562 -19.441406 27.78125 -17.453125 C 30.457031 -15.460938 33.367188 -14.46875 36.515625 -14.46875 C 39.804688 -14.46875 42.40625 -14.90625 44.3125 -15.78125 C 46.226562 -16.664062 48.410156 -18.410156 50.859375 -21.015625 L 65.5625 -13.65625 C 59.4375 -3.40625 49.253906 1.71875 35.015625 1.71875 C 26.140625 1.71875 18.523438 -1.320312 12.171875 -7.40625 C 5.816406 -13.488281 2.640625 -20.816406 2.640625 -29.390625 C 2.640625 -37.960938 5.816406 -45.3125 12.171875 -51.4375 C 18.523438 -57.5625 26.140625 -60.625 35.015625 -60.625 C 44.359375 -60.625 51.957031 -57.925781 57.8125 -52.53125 C 63.664062 -47.132812 66.59375 -39.421875 66.59375 -29.390625 C 66.59375 -28.015625 66.550781 -27.097656 66.46875 -26.640625 Z M 24.34375 -37.890625 L 46.734375 -37.890625 C 46.273438 -40.953125 45.066406 -43.304688 43.109375 -44.953125 C 41.160156 -46.597656 38.65625 -47.421875 35.59375 -47.421875 C 32.226562 -47.421875 29.546875 -46.539062 27.546875 -44.78125 C 25.554688 -43.019531 24.488281 -40.722656 24.34375 -37.890625 Z M 24.34375 -37.890625 "/></g></g></g><g fill="#ffffff" fill-opacity="1"><g transform="translate(323.042425, 240.352589)"><g><path d="M 38.234375 -43.96875 C 34.398438 -43.96875 31.101562 -42.550781 28.34375 -39.71875 C 25.59375 -36.894531 24.21875 -33.488281 24.21875 -29.5 C 24.21875 -25.445312 25.59375 -22.003906 28.34375 -19.171875 C 31.101562 -16.335938 34.398438 -14.921875 38.234375 -14.921875 C 40.066406 -14.921875 41.804688 -15.148438 43.453125 -15.609375 C 45.097656 -16.066406 46.304688 -16.53125 47.078125 -17 L 48.109375 -17.6875 L 55 -3.5625 C 54.457031 -3.175781 53.707031 -2.695312 52.75 -2.125 C 51.800781 -1.550781 49.625 -0.769531 46.21875 0.21875 C 42.8125 1.21875 39.15625 1.71875 35.25 1.71875 C 26.601562 1.71875 19.003906 -1.320312 12.453125 -7.40625 C 5.910156 -13.488281 2.640625 -20.78125 2.640625 -29.28125 C 2.640625 -37.851562 5.910156 -45.21875 12.453125 -51.375 C 19.003906 -57.539062 26.601562 -60.625 35.25 -60.625 C 39.15625 -60.625 42.753906 -60.160156 46.046875 -59.234375 C 49.335938 -58.316406 51.671875 -57.398438 53.046875 -56.484375 L 55 -55.109375 L 48.109375 -41.21875 C 45.578125 -43.050781 42.285156 -43.96875 38.234375 -43.96875 Z M 38.234375 -43.96875 "/></g></g></g><g fill="#ffffff" fill-opacity="1"><g transform="translate(379.406748, 240.352589)"><g><path d="M 85.1875 0 L 80.71875 -56.140625 L 80.140625 -56.140625 L 60.734375 -0.578125 L 47.875 -0.578125 L 28.46875 -56.140625 L 27.90625 -56.140625 L 23.421875 0 L 1.84375 0 L 10.328125 -94.71875 L 33.296875 -94.71875 L 54.3125 -40.0625 L 75.3125 -94.71875 L 98.28125 -94.71875 L 106.78125 0 Z M 85.1875 0 "/></g></g></g><g fill="#ffffff" fill-opacity="1"><g transform="translate(488.002791, 240.352589)"><g><path d="M 10.90625 -7.28125 C 5.394531 -13.289062 2.640625 -20.660156 2.640625 -29.390625 C 2.640625 -38.117188 5.394531 -45.503906 10.90625 -51.546875 C 16.414062 -57.597656 23.421875 -60.625 31.921875 -60.625 C 39.722656 -60.625 46.148438 -58.171875 51.203125 -53.265625 L 51.203125 -58.90625 L 71.53125 -58.90625 L 71.53125 0 L 51.4375 0 L 51.4375 -6.65625 L 51.203125 -6.65625 C 46.148438 -1.070312 39.722656 1.71875 31.921875 1.71875 C 23.421875 1.71875 16.414062 -1.28125 10.90625 -7.28125 Z M 28.171875 -39.375 C 25.535156 -36.78125 24.21875 -33.453125 24.21875 -29.390625 C 24.21875 -25.335938 25.476562 -22.023438 28 -19.453125 C 30.53125 -16.890625 33.863281 -15.609375 38 -15.609375 C 41.976562 -15.609375 45.25 -16.910156 47.8125 -19.515625 C 50.382812 -22.117188 51.671875 -25.410156 51.671875 -29.390625 C 51.671875 -33.453125 50.347656 -36.78125 47.703125 -39.375 C 45.066406 -41.976562 41.832031 -43.28125 38 -43.28125 C 34.09375 -43.28125 30.816406 -41.976562 28.171875 -39.375 Z M 28.171875 -39.375 "/></g></g></g><g fill="#ffffff" fill-opacity="1"><g transform="translate(566.407751, 240.352589)"><g><path d="M 6.890625 0 L 6.890625 -58.90625 L 27.203125 -58.90625 L 27.203125 -50.40625 L 27.4375 -50.40625 C 27.59375 -50.707031 27.84375 -51.085938 28.1875 -51.546875 C 28.53125 -52.003906 29.273438 -52.804688 30.421875 -53.953125 C 31.566406 -55.109375 32.789062 -56.144531 34.09375 -57.0625 C 35.394531 -57.976562 37.078125 -58.800781 39.140625 -59.53125 C 41.210938 -60.257812 43.320312 -60.625 45.46875 -60.625 C 47.6875 -60.625 49.863281 -60.316406 52 -59.703125 C 54.144531 -59.085938 55.71875 -58.472656 56.71875 -57.859375 L 58.328125 -56.953125 L 49.828125 -39.71875 C 47.304688 -41.863281 43.785156 -42.9375 39.265625 -42.9375 C 36.816406 -42.9375 34.710938 -42.398438 32.953125 -41.328125 C 31.191406 -40.253906 29.945312 -38.953125 29.21875 -37.421875 C 28.488281 -35.890625 27.96875 -34.585938 27.65625 -33.515625 C 27.351562 -32.453125 27.203125 -31.613281 27.203125 -31 L 27.203125 0 Z M 6.890625 0 "/></g></g></g><g fill="#ffffff" fill-opacity="1"><g transform="translate(623.575616, 240.352589)"><g><path d="M 10.328125 -58.90625 L 10.328125 -80.828125 L 30.65625 -80.828125 L 30.65625 -58.90625 L 43.0625 -58.90625 L 43.0625 -43.40625 L 30.65625 -43.40625 L 30.65625 -24.6875 C 30.65625 -19.25 32.1875 -16.53125 35.25 -16.53125 C 36.007812 -16.53125 36.8125 -16.679688 37.65625 -16.984375 C 38.5 -17.296875 39.148438 -17.601562 39.609375 -17.90625 L 40.296875 -18.375 L 45.34375 -1.953125 C 40.988281 0.492188 36.015625 1.71875 30.421875 1.71875 C 26.597656 1.71875 23.304688 1.050781 20.546875 -0.28125 C 17.796875 -1.625 15.710938 -3.421875 14.296875 -5.671875 C 12.878906 -7.929688 11.863281 -10.304688 11.25 -12.796875 C 10.632812 -15.285156 10.328125 -17.945312 10.328125 -20.78125 L 10.328125 -43.40625 L 1.84375 -43.40625 L 1.84375 -58.90625 Z M 10.328125 -58.90625 "/></g></g></g><g fill="#ffffff" fill-opacity="1"><g transform="translate(255.453857, 292.02102)"><g><path d="M 23.5 -28.65625 L 23.5 -9.171875 C 23.488281 -6.472656 22.640625 -4.257812 20.953125 -2.53125 C 19.265625 -0.8125 16.976562 0.148438 14.09375 0.359375 L 13.09375 0.390625 C 9.957031 0.390625 7.457031 -0.453125 5.59375 -2.140625 C 3.726562 -3.835938 2.78125 -6.171875 2.75 -9.140625 L 2.75 -28.65625 L 6.5 -28.65625 L 6.5 -9.25 C 6.5 -7.175781 7.066406 -5.566406 8.203125 -4.421875 C 9.347656 -3.273438 10.976562 -2.703125 13.09375 -2.703125 C 15.226562 -2.703125 16.863281 -3.269531 18 -4.40625 C 19.132812 -5.550781 19.703125 -7.160156 19.703125 -9.234375 L 19.703125 -28.65625 Z M 23.5 -28.65625 "/></g></g></g><g fill="#ffffff" fill-opacity="1"><g transform="translate(288.644369, 292.02102)"><g><path d="M 6.203125 -21.296875 L 6.3125 -18.625 C 7.945312 -20.664062 10.078125 -21.6875 12.703125 -21.6875 C 17.203125 -21.6875 19.46875 -19.148438 19.5 -14.078125 L 19.5 0 L 15.859375 0 L 15.859375 -14.09375 C 15.847656 -15.625 15.5 -16.753906 14.8125 -17.484375 C 14.125 -18.222656 13.050781 -18.59375 11.59375 -18.59375 C 10.414062 -18.59375 9.378906 -18.28125 8.484375 -17.65625 C 7.585938 -17.03125 6.890625 -16.203125 6.390625 -15.171875 L 6.390625 0 L 2.75 0 L 2.75 -21.296875 Z M 6.203125 -21.296875 "/></g></g></g><g fill="#ffffff" fill-opacity="1"><g transform="translate(317.938372, 292.02102)"><g><path d="M 20.78125 -10.40625 C 20.78125 -7.15625 20.03125 -4.539062 18.53125 -2.5625 C 17.039062 -0.59375 15.035156 0.390625 12.515625 0.390625 C 9.828125 0.390625 7.75 -0.554688 6.28125 -2.453125 L 6.109375 0 L 2.75 0 L 2.75 -30.234375 L 6.390625 -30.234375 L 6.390625 -18.953125 C 7.867188 -20.773438 9.898438 -21.6875 12.484375 -21.6875 C 15.066406 -21.6875 17.09375 -20.707031 18.5625 -18.75 C 20.039062 -16.800781 20.78125 -14.128906 20.78125 -10.734375 Z M 17.140625 -10.828125 C 17.140625 -13.304688 16.660156 -15.21875 15.703125 -16.5625 C 14.742188 -17.914062 13.367188 -18.59375 11.578125 -18.59375 C 9.171875 -18.59375 7.441406 -17.476562 6.390625 -15.25 L 6.390625 -6.046875 C 7.515625 -3.816406 9.253906 -2.703125 11.609375 -2.703125 C 13.359375 -2.703125 14.71875 -3.375 15.6875 -4.71875 C 16.65625 -6.070312 17.140625 -8.109375 17.140625 -10.828125 Z M 17.140625 -10.828125 "/></g></g></g><g fill="#ffffff" fill-opacity="1"><g transform="translate(347.606283, 292.02102)"><g><path d="M 1.796875 -10.84375 C 1.796875 -12.925781 2.203125 -14.800781 3.015625 -16.46875 C 3.835938 -18.132812 4.976562 -19.421875 6.4375 -20.328125 C 7.90625 -21.234375 9.578125 -21.6875 11.453125 -21.6875 C 14.359375 -21.6875 16.707031 -20.679688 18.5 -18.671875 C 20.289062 -16.671875 21.1875 -14.003906 21.1875 -10.671875 L 21.1875 -10.40625 C 21.1875 -8.332031 20.785156 -6.472656 19.984375 -4.828125 C 19.191406 -3.179688 18.054688 -1.898438 16.578125 -0.984375 C 15.109375 -0.0664062 13.414062 0.390625 11.5 0.390625 C 8.613281 0.390625 6.273438 -0.609375 4.484375 -2.609375 C 2.691406 -4.617188 1.796875 -7.28125 1.796875 -10.59375 Z M 5.453125 -10.40625 C 5.453125 -8.050781 6 -6.15625 7.09375 -4.71875 C 8.1875 -3.289062 9.65625 -2.578125 11.5 -2.578125 C 13.34375 -2.578125 14.804688 -3.300781 15.890625 -4.75 C 16.984375 -6.195312 17.53125 -8.226562 17.53125 -10.84375 C 17.53125 -13.175781 16.976562 -15.066406 15.875 -16.515625 C 14.769531 -17.972656 13.296875 -18.703125 11.453125 -18.703125 C 9.660156 -18.703125 8.210938 -17.984375 7.109375 -16.546875 C 6.003906 -15.117188 5.453125 -13.070312 5.453125 -10.40625 Z M 5.453125 -10.40625 "/></g></g></g><g fill="#ffffff" fill-opacity="1"><g transform="translate(377.648103, 292.02102)"><g><path d="M 9.90625 -13.515625 L 14.625 -21.296875 L 18.875 -21.296875 L 11.90625 -10.765625 L 19.09375 0 L 14.875 0 L 9.953125 -7.96875 L 5.046875 0 L 0.8125 0 L 7.984375 -10.765625 L 1.03125 -21.296875 L 5.234375 -21.296875 Z M 9.90625 -13.515625 "/></g></g></g><g fill="#ffffff" fill-opacity="1"><g transform="translate(404.678983, 292.02102)"><g/></g></g><g fill="#ffffff" fill-opacity="1"><g transform="translate(421.712762, 292.02102)"><g><path d="M 25.359375 0 L 21.546875 0 L 21.546875 -13.25 L 7.109375 -13.25 L 7.109375 0 L 3.328125 0 L 3.328125 -28.65625 L 7.109375 -28.65625 L 7.109375 -16.34375 L 21.546875 -16.34375 L 21.546875 -28.65625 L 25.359375 -28.65625 Z M 25.359375 0 "/></g></g></g><g fill="#ffffff" fill-opacity="1"><g transform="translate(457.500946, 292.02102)"><g><path d="M 15.90625 0 C 15.695312 -0.414062 15.523438 -1.164062 15.390625 -2.25 C 13.703125 -0.488281 11.679688 0.390625 9.328125 0.390625 C 7.234375 0.390625 5.507812 -0.203125 4.15625 -1.390625 C 2.8125 -2.578125 2.140625 -4.082031 2.140625 -5.90625 C 2.140625 -8.125 2.984375 -9.84375 4.671875 -11.0625 C 6.359375 -12.289062 8.734375 -12.90625 11.796875 -12.90625 L 15.328125 -12.90625 L 15.328125 -14.578125 C 15.328125 -15.859375 14.945312 -16.875 14.1875 -17.625 C 13.425781 -18.382812 12.304688 -18.765625 10.828125 -18.765625 C 9.523438 -18.765625 8.429688 -18.4375 7.546875 -17.78125 C 6.671875 -17.125 6.234375 -16.328125 6.234375 -15.390625 L 2.578125 -15.390625 C 2.578125 -16.453125 2.953125 -17.476562 3.703125 -18.46875 C 4.460938 -19.457031 5.488281 -20.238281 6.78125 -20.8125 C 8.070312 -21.394531 9.492188 -21.6875 11.046875 -21.6875 C 13.492188 -21.6875 15.410156 -21.070312 16.796875 -19.84375 C 18.191406 -18.625 18.914062 -16.9375 18.96875 -14.78125 L 18.96875 -4.984375 C 18.96875 -3.023438 19.21875 -1.46875 19.71875 -0.3125 L 19.71875 0 Z M 9.859375 -2.78125 C 11.003906 -2.78125 12.085938 -3.070312 13.109375 -3.65625 C 14.128906 -4.25 14.867188 -5.019531 15.328125 -5.96875 L 15.328125 -10.328125 L 12.484375 -10.328125 C 8.015625 -10.328125 5.78125 -9.023438 5.78125 -6.421875 C 5.78125 -5.273438 6.160156 -4.378906 6.921875 -3.734375 C 7.691406 -3.097656 8.671875 -2.78125 9.859375 -2.78125 Z M 9.859375 -2.78125 "/></g></g></g><g fill="#ffffff" fill-opacity="1"><g transform="translate(486.48008, 292.02102)"><g><path d="M 20.75 -10.40625 C 20.75 -7.164062 20.003906 -4.554688 18.515625 -2.578125 C 17.035156 -0.597656 15.03125 0.390625 12.5 0.390625 C 9.914062 0.390625 7.878906 -0.425781 6.390625 -2.0625 L 6.390625 8.1875 L 2.75 8.1875 L 2.75 -21.296875 L 6.078125 -21.296875 L 6.265625 -18.9375 C 7.742188 -20.769531 9.800781 -21.6875 12.4375 -21.6875 C 15 -21.6875 17.023438 -20.722656 18.515625 -18.796875 C 20.003906 -16.867188 20.75 -14.1875 20.75 -10.75 Z M 17.109375 -10.828125 C 17.109375 -13.222656 16.59375 -15.113281 15.5625 -16.5 C 14.539062 -17.894531 13.140625 -18.59375 11.359375 -18.59375 C 9.148438 -18.59375 7.492188 -17.617188 6.390625 -15.671875 L 6.390625 -5.484375 C 7.484375 -3.546875 9.148438 -2.578125 11.390625 -2.578125 C 13.140625 -2.578125 14.53125 -3.269531 15.5625 -4.65625 C 16.59375 -6.039062 17.109375 -8.097656 17.109375 -10.828125 Z M 17.109375 -10.828125 "/></g></g></g><g fill="#ffffff" fill-opacity="1"><g transform="translate(516.147991, 292.02102)"><g><path d="M 20.75 -10.40625 C 20.75 -7.164062 20.003906 -4.554688 18.515625 -2.578125 C 17.035156 -0.597656 15.03125 0.390625 12.5 0.390625 C 9.914062 0.390625 7.878906 -0.425781 6.390625 -2.0625 L 6.390625 8.1875 L 2.75 8.1875 L 2.75 -21.296875 L 6.078125 -21.296875 L 6.265625 -18.9375 C 7.742188 -20.769531 9.800781 -21.6875 12.4375 -21.6875 C 15 -21.6875 17.023438 -20.722656 18.515625 -18.796875 C 20.003906 -16.867188 20.75 -14.1875 20.75 -10.75 Z M 17.109375 -10.828125 C 17.109375 -13.222656 16.59375 -15.113281 15.5625 -16.5 C 14.539062 -17.894531 13.140625 -18.59375 11.359375 -18.59375 C 9.148438 -18.59375 7.492188 -17.617188 6.390625 -15.671875 L 6.390625 -5.484375 C 7.484375 -3.546875 9.148438 -2.578125 11.390625 -2.578125 C 13.140625 -2.578125 14.53125 -3.269531 15.5625 -4.65625 C 16.59375 -6.039062 17.109375 -8.097656 17.109375 -10.828125 Z M 17.109375 -10.828125 "/></g></g></g><g fill="#ffffff" fill-opacity="1"><g transform="translate(545.815902, 292.02102)"><g><path d="M 6.71875 0 L 3.078125 0 L 3.078125 -21.296875 L 6.71875 -21.296875 Z M 2.78125 -26.953125 C 2.78125 -27.535156 2.957031 -28.03125 3.3125 -28.4375 C 3.675781 -28.84375 4.210938 -29.046875 4.921875 -29.046875 C 5.628906 -29.046875 6.164062 -28.84375 6.53125 -28.4375 C 6.90625 -28.03125 7.09375 -27.53125 7.09375 -26.9375 C 7.09375 -26.351562 6.90625 -25.863281 6.53125 -25.46875 C 6.164062 -25.070312 5.628906 -24.875 4.921875 -24.875 C 4.210938 -24.875 3.675781 -25.070312 3.3125 -25.46875 C 2.957031 -25.863281 2.78125 -26.359375 2.78125 -26.953125 Z M 2.78125 -26.953125 "/></g></g></g><g fill="#ffffff" fill-opacity="1"><g transform="translate(562.652888, 292.02102)"><g><path d="M 6.203125 -21.296875 L 6.3125 -18.625 C 7.945312 -20.664062 10.078125 -21.6875 12.703125 -21.6875 C 17.203125 -21.6875 19.46875 -19.148438 19.5 -14.078125 L 19.5 0 L 15.859375 0 L 15.859375 -14.09375 C 15.847656 -15.625 15.5 -16.753906 14.8125 -17.484375 C 14.125 -18.222656 13.050781 -18.59375 11.59375 -18.59375 C 10.414062 -18.59375 9.378906 -18.28125 8.484375 -17.65625 C 7.585938 -17.03125 6.890625 -16.203125 6.390625 -15.171875 L 6.390625 0 L 2.75 0 L 2.75 -21.296875 Z M 6.203125 -21.296875 "/></g></g></g><g fill="#ffffff" fill-opacity="1"><g transform="translate(591.946892, 292.02102)"><g><path d="M 11.59375 0.390625 C 8.707031 0.390625 6.359375 -0.554688 4.546875 -2.453125 C 2.734375 -4.347656 1.828125 -6.882812 1.828125 -10.0625 L 1.828125 -10.734375 C 1.828125 -12.835938 2.226562 -14.71875 3.03125 -16.375 C 3.84375 -18.039062 4.972656 -19.34375 6.421875 -20.28125 C 7.878906 -21.21875 9.453125 -21.6875 11.140625 -21.6875 C 13.910156 -21.6875 16.0625 -20.773438 17.59375 -18.953125 C 19.132812 -17.128906 19.90625 -14.519531 19.90625 -11.125 L 19.90625 -9.609375 L 5.46875 -9.609375 C 5.519531 -7.503906 6.132812 -5.804688 7.3125 -4.515625 C 8.488281 -3.222656 9.984375 -2.578125 11.796875 -2.578125 C 13.078125 -2.578125 14.160156 -2.835938 15.046875 -3.359375 C 15.941406 -3.890625 16.726562 -4.585938 17.40625 -5.453125 L 19.625 -3.71875 C 17.84375 -0.976562 15.164062 0.390625 11.59375 0.390625 Z M 11.140625 -18.703125 C 9.671875 -18.703125 8.4375 -18.164062 7.4375 -17.09375 C 6.4375 -16.019531 5.820312 -14.519531 5.59375 -12.59375 L 16.265625 -12.59375 L 16.265625 -12.875 C 16.148438 -14.726562 15.644531 -16.160156 14.75 -17.171875 C 13.863281 -18.191406 12.660156 -18.703125 11.140625 -18.703125 Z M 11.140625 -18.703125 "/></g></g></g><g fill="#ffffff" fill-opacity="1"><g transform="translate(620.355325, 292.02102)"><g><path d="M 15.15625 -5.65625 C 15.15625 -6.632812 14.785156 -7.394531 14.046875 -7.9375 C 13.304688 -8.488281 12.015625 -8.957031 10.171875 -9.34375 C 8.328125 -9.738281 6.863281 -10.210938 5.78125 -10.765625 C 4.695312 -11.316406 3.894531 -11.972656 3.375 -12.734375 C 2.851562 -13.492188 2.59375 -14.398438 2.59375 -15.453125 C 2.59375 -17.191406 3.332031 -18.664062 4.8125 -19.875 C 6.289062 -21.082031 8.175781 -21.6875 10.46875 -21.6875 C 12.882812 -21.6875 14.84375 -21.0625 16.34375 -19.8125 C 17.84375 -18.570312 18.59375 -16.976562 18.59375 -15.03125 L 14.9375 -15.03125 C 14.9375 -16.03125 14.515625 -16.890625 13.671875 -17.609375 C 12.828125 -18.335938 11.757812 -18.703125 10.46875 -18.703125 C 9.144531 -18.703125 8.109375 -18.410156 7.359375 -17.828125 C 6.609375 -17.253906 6.234375 -16.5 6.234375 -15.5625 C 6.234375 -14.6875 6.582031 -14.023438 7.28125 -13.578125 C 7.976562 -13.128906 9.234375 -12.703125 11.046875 -12.296875 C 12.867188 -11.890625 14.34375 -11.40625 15.46875 -10.84375 C 16.601562 -10.28125 17.441406 -9.601562 17.984375 -8.8125 C 18.523438 -8.019531 18.796875 -7.050781 18.796875 -5.90625 C 18.796875 -4 18.035156 -2.472656 16.515625 -1.328125 C 14.992188 -0.179688 13.019531 0.390625 10.59375 0.390625 C 8.882812 0.390625 7.375 0.0859375 6.0625 -0.515625 C 4.75 -1.117188 3.722656 -1.960938 2.984375 -3.046875 C 2.242188 -4.128906 1.875 -5.300781 1.875 -6.5625 L 5.515625 -6.5625 C 5.578125 -5.332031 6.0625 -4.359375 6.96875 -3.640625 C 7.882812 -2.929688 9.09375 -2.578125 10.59375 -2.578125 C 11.96875 -2.578125 13.070312 -2.851562 13.90625 -3.40625 C 14.738281 -3.96875 15.15625 -4.71875 15.15625 -5.65625 Z M 15.15625 -5.65625 "/></g></g></g><g fill="#ffffff" fill-opacity="1"><g transform="translate(648.193059, 292.02102)"><g><path d="M 15.15625 -5.65625 C 15.15625 -6.632812 14.785156 -7.394531 14.046875 -7.9375 C 13.304688 -8.488281 12.015625 -8.957031 10.171875 -9.34375 C 8.328125 -9.738281 6.863281 -10.210938 5.78125 -10.765625 C 4.695312 -11.316406 3.894531 -11.972656 3.375 -12.734375 C 2.851562 -13.492188 2.59375 -14.398438 2.59375 -15.453125 C 2.59375 -17.191406 3.332031 -18.664062 4.8125 -19.875 C 6.289062 -21.082031 8.175781 -21.6875 10.46875 -21.6875 C 12.882812 -21.6875 14.84375 -21.0625 16.34375 -19.8125 C 17.84375 -18.570312 18.59375 -16.976562 18.59375 -15.03125 L 14.9375 -15.03125 C 14.9375 -16.03125 14.515625 -16.890625 13.671875 -17.609375 C 12.828125 -18.335938 11.757812 -18.703125 10.46875 -18.703125 C 9.144531 -18.703125 8.109375 -18.410156 7.359375 -17.828125 C 6.609375 -17.253906 6.234375 -16.5 6.234375 -15.5625 C 6.234375 -14.6875 6.582031 -14.023438 7.28125 -13.578125 C 7.976562 -13.128906 9.234375 -12.703125 11.046875 -12.296875 C 12.867188 -11.890625 14.34375 -11.40625 15.46875 -10.84375 C 16.601562 -10.28125 17.441406 -9.601562 17.984375 -8.8125 C 18.523438 -8.019531 18.796875 -7.050781 18.796875 -5.90625 C 18.796875 -4 18.035156 -2.472656 16.515625 -1.328125 C 14.992188 -0.179688 13.019531 0.390625 10.59375 0.390625 C 8.882812 0.390625 7.375 0.0859375 6.0625 -0.515625 C 4.75 -1.117188 3.722656 -1.960938 2.984375 -3.046875 C 2.242188 -4.128906 1.875 -5.300781 1.875 -6.5625 L 5.515625 -6.5625 C 5.578125 -5.332031 6.0625 -4.359375 6.96875 -3.640625 C 7.882812 -2.929688 9.09375 -2.578125 10.59375 -2.578125 C 11.96875 -2.578125 13.070312 -2.851562 13.90625 -3.40625 C 14.738281 -3.96875 15.15625 -4.71875 15.15625 -5.65625 Z M 15.15625 -5.65625 "/></g></g></g></svg>