<svg xmlns="http://www.w3.org/2000/svg" xmlns:xlink="http://www.w3.org/1999/xlink" width="900" zoomAndPan="magnify" viewBox="0 0 675 299.999988" height="400" preserveAspectRatio="xMidYMid meet" version="1.0"><defs><g/><clipPath id="09617cc319"><path d="M 5 39 L 164 39 L 164 287 L 5 287 Z M 5 39 " clip-rule="nonzero"/></clipPath><clipPath id="b40b5f75f7"><path d="M -27.851562 45.902344 L 243.867188 -32.308594 L 322.285156 240.128906 L 50.570312 318.339844 Z M -27.851562 45.902344 " clip-rule="nonzero"/></clipPath><clipPath id="2b2a5d37e1"><path d="M -27.851562 45.902344 L 243.867188 -32.308594 L 322.285156 240.128906 L 50.570312 318.339844 Z M -27.851562 45.902344 " clip-rule="nonzero"/></clipPath><clipPath id="f948e51b85"><path d="M 39 7 L 177 7 L 177 263 L 39 263 Z M 39 7 " clip-rule="nonzero"/></clipPath><clipPath id="e2acfc3a6b"><path d="M -27.851562 45.902344 L 243.867188 -32.308594 L 322.285156 240.128906 L 50.570312 318.339844 Z M -27.851562 45.902344 " clip-rule="nonzero"/></clipPath><clipPath id="91d5e7f6e5"><path d="M -27.851562 45.902344 L 243.867188 -32.308594 L 322.285156 240.128906 L 50.570312 318.339844 Z M -27.851562 45.902344 " clip-rule="nonzero"/></clipPath><clipPath id="fd358d32b5"><path d="M 66 42 L 253 42 L 253 213 L 66 213 Z M 66 42 " clip-rule="nonzero"/></clipPath><clipPath id="b0a3870768"><path d="M -27.851562 45.902344 L 243.867188 -32.308594 L 322.285156 240.128906 L 50.570312 318.339844 Z M -27.851562 45.902344 " clip-rule="nonzero"/></clipPath><clipPath id="1e3a40a6a8"><path d="M -27.851562 45.902344 L 243.867188 -32.308594 L 322.285156 240.128906 L 50.570312 318.339844 Z M -27.851562 45.902344 " clip-rule="nonzero"/></clipPath><clipPath id="1eb07678bc"><path d="M 80 83 L 221 83 L 221 171 L 80 171 Z M 80 83 " clip-rule="nonzero"/></clipPath><clipPath id="d01e1299e2"><path d="M -27.851562 45.902344 L 243.867188 -32.308594 L 322.285156 240.128906 L 50.570312 318.339844 Z M -27.851562 45.902344 " clip-rule="nonzero"/></clipPath><clipPath id="6d46c8f387"><path d="M -27.851562 45.902344 L 243.867188 -32.308594 L 322.285156 240.128906 L 50.570312 318.339844 Z M -27.851562 45.902344 " clip-rule="nonzero"/></clipPath><clipPath id="cab668dea9"><path d="M 180 3 L 205 3 L 205 28 L 180 28 Z M 180 3 " clip-rule="nonzero"/></clipPath><clipPath id="b90ce41b66"><path d="M -27.851562 45.902344 L 243.867188 -32.308594 L 322.285156 240.128906 L 50.570312 318.339844 Z M -27.851562 45.902344 " clip-rule="nonzero"/></clipPath><clipPath id="84afcaa427"><path d="M -27.851562 45.902344 L 243.867188 -32.308594 L 322.285156 240.128906 L 50.570312 318.339844 Z M -27.851562 45.902344 " clip-rule="nonzero"/></clipPath><clipPath id="caaa07850d"><path d="M 251 66 L 275 66 L 275 91 L 251 91 Z M 251 66 " clip-rule="nonzero"/></clipPath><clipPath id="ac79172418"><path d="M -27.851562 45.902344 L 243.867188 -32.308594 L 322.285156 240.128906 L 50.570312 318.339844 Z M -27.851562 45.902344 " clip-rule="nonzero"/></clipPath><clipPath id="b9c2b00c44"><path d="M -27.851562 45.902344 L 243.867188 -32.308594 L 322.285156 240.128906 L 50.570312 318.339844 Z M -27.851562 45.902344 " clip-rule="nonzero"/></clipPath><clipPath id="71b74ecab2"><path d="M 222 93 L 247 93 L 247 118 L 222 118 Z M 222 93 " clip-rule="nonzero"/></clipPath><clipPath id="250cfba115"><path d="M -27.851562 45.902344 L 243.867188 -32.308594 L 322.285156 240.128906 L 50.570312 318.339844 Z M -27.851562 45.902344 " clip-rule="nonzero"/></clipPath><clipPath id="e95f63b5f8"><path d="M -27.851562 45.902344 L 243.867188 -32.308594 L 322.285156 240.128906 L 50.570312 318.339844 Z M -27.851562 45.902344 " clip-rule="nonzero"/></clipPath><clipPath id="e18647eed3"><path d="M 212 24 L 225 24 L 225 38 L 212 38 Z M 212 24 " clip-rule="nonzero"/></clipPath><clipPath id="883e5fb47c"><path d="M -27.851562 45.902344 L 243.867188 -32.308594 L 322.285156 240.128906 L 50.570312 318.339844 Z M -27.851562 45.902344 " clip-rule="nonzero"/></clipPath><clipPath id="548c236e5d"><path d="M -27.851562 45.902344 L 243.867188 -32.308594 L 322.285156 240.128906 L 50.570312 318.339844 Z M -27.851562 45.902344 " clip-rule="nonzero"/></clipPath><clipPath id="a15df84ecc"><path d="M 259 103 L 273 103 L 273 117 L 259 117 Z M 259 103 " clip-rule="nonzero"/></clipPath><clipPath id="0f2130c809"><path d="M -27.851562 45.902344 L 243.867188 -32.308594 L 322.285156 240.128906 L 50.570312 318.339844 Z M -27.851562 45.902344 " clip-rule="nonzero"/></clipPath><clipPath id="3227374247"><path d="M -27.851562 45.902344 L 243.867188 -32.308594 L 322.285156 240.128906 L 50.570312 318.339844 Z M -27.851562 45.902344 " clip-rule="nonzero"/></clipPath><clipPath id="5327fb75d1"><path d="M 87 11 L 100 11 L 100 25 L 87 25 Z M 87 11 " clip-rule="nonzero"/></clipPath><clipPath id="6c06d6c358"><path d="M -27.851562 45.902344 L 243.867188 -32.308594 L 322.285156 240.128906 L 50.570312 318.339844 Z M -27.851562 45.902344 " clip-rule="nonzero"/></clipPath><clipPath id="fd6945870f"><path d="M -27.851562 45.902344 L 243.867188 -32.308594 L 322.285156 240.128906 L 50.570312 318.339844 Z M -27.851562 45.902344 " clip-rule="nonzero"/></clipPath><clipPath id="4ce75fc497"><path d="M 57 18 L 82 18 L 82 42 L 57 42 Z M 57 18 " clip-rule="nonzero"/></clipPath><clipPath id="8a51254ad9"><path d="M -27.851562 45.902344 L 243.867188 -32.308594 L 322.285156 240.128906 L 50.570312 318.339844 Z M -27.851562 45.902344 " clip-rule="nonzero"/></clipPath><clipPath id="758696ff66"><path d="M -27.851562 45.902344 L 243.867188 -32.308594 L 322.285156 240.128906 L 50.570312 318.339844 Z M -27.851562 45.902344 " clip-rule="nonzero"/></clipPath></defs><g clip-path="url(#09617cc319)"><g clip-path="url(#b40b5f75f7)"><g clip-path="url(#2b2a5d37e1)"><path fill="#19202b" d="M 59.691406 42.371094 C 63.285156 45.992188 63.550781 51.804688 60.308594 55.644531 C 31.671875 89.609375 20.074219 137.519531 33.542969 184.3125 C 51.027344 245.058594 105.304688 284.933594 163.9375 285.390625 C 96.980469 294.027344 31.410156 251.277344 11.625 182.546875 C -3.308594 130.664062 11.734375 77.445312 46.367188 42.308594 C 50.019531 38.589844 55.964844 38.609375 59.691406 42.371094 Z M 59.691406 42.371094 " fill-opacity="1" fill-rule="nonzero"/></g></g></g><g clip-path="url(#f948e51b85)"><g clip-path="url(#e2acfc3a6b)"><g clip-path="url(#91d5e7f6e5)"><path fill="#f6971d" d="M 176.382812 16.113281 C 176.882812 21.074219 173.4375 25.566406 168.515625 26.378906 C 125.066406 33.550781 86 61.867188 66.992188 105.203125 C 42.324219 161.453125 59.171875 225.4375 104.160156 262.835938 C 47.035156 226.933594 23.265625 153.675781 51.183594 90.027344 C 72.253906 41.988281 117.304688 11.890625 166.128906 7.636719 C 171.289062 7.191406 175.863281 10.957031 176.382812 16.113281 Z M 176.382812 16.113281 " fill-opacity="1" fill-rule="nonzero"/></g></g></g><g clip-path="url(#fd358d32b5)"><g clip-path="url(#b0a3870768)"><g clip-path="url(#1e3a40a6a8)"><path fill="#19202b" d="M 251.589844 69.066406 C 249.488281 72.921875 244.753906 74.46875 240.769531 72.609375 C 205.660156 56.214844 163.226562 57.355469 127.886719 79.367188 C 82.011719 107.9375 62.4375 162.765625 76.507812 212.277344 C 52.882812 157.816406 72.046875 92.824219 123.953125 60.496094 C 163.132812 36.089844 210.796875 36.640625 248.351562 57.820312 C 252.324219 60.058594 253.765625 65.066406 251.589844 69.066406 Z M 251.589844 69.066406 " fill-opacity="1" fill-rule="nonzero"/></g></g></g><g clip-path="url(#1eb07678bc)"><g clip-path="url(#d01e1299e2)"><g clip-path="url(#6d46c8f387)"><path fill="#f6971d" d="M 219.871094 98.207031 C 218.351562 102.40625 213.867188 104.765625 209.550781 103.59375 C 202.894531 101.789062 195.972656 100.597656 188.832031 100.105469 C 140.097656 96.703125 96.707031 126.460938 80.757812 170.171875 C 92.335938 117.773438 140.820312 80.351562 195.960938 84.203125 C 202.042969 84.625 207.96875 85.535156 213.707031 86.886719 C 218.738281 88.078125 221.625 93.355469 219.871094 98.207031 Z M 219.871094 98.207031 " fill-opacity="1" fill-rule="nonzero"/></g></g></g><g clip-path="url(#cab668dea9)"><g clip-path="url(#b90ce41b66)"><g clip-path="url(#84afcaa427)"><path fill="#19202b" d="M 203.625 12.234375 C 203.839844 12.980469 203.980469 13.738281 204.042969 14.511719 C 204.109375 15.28125 204.097656 16.054688 204.011719 16.824219 C 203.921875 17.59375 203.761719 18.347656 203.527344 19.085938 C 203.292969 19.824219 202.984375 20.53125 202.609375 21.210938 C 202.234375 21.886719 201.796875 22.523438 201.296875 23.117188 C 200.796875 23.707031 200.246094 24.246094 199.640625 24.726562 C 199.035156 25.210938 198.386719 25.628906 197.699219 25.984375 C 197.007812 26.339844 196.292969 26.625 195.546875 26.839844 C 194.804688 27.054688 194.042969 27.195312 193.273438 27.257812 C 192.5 27.324219 191.730469 27.3125 190.957031 27.226562 C 190.1875 27.140625 189.433594 26.980469 188.695312 26.742188 C 187.957031 26.507812 187.25 26.203125 186.570312 25.828125 C 185.894531 25.453125 185.257812 25.015625 184.667969 24.515625 C 184.074219 24.015625 183.535156 23.460938 183.054688 22.855469 C 182.570312 22.25 182.152344 21.601562 181.796875 20.914062 C 181.441406 20.226562 181.15625 19.507812 180.941406 18.765625 C 180.726562 18.019531 180.585938 17.261719 180.523438 16.488281 C 180.457031 15.714844 180.46875 14.945312 180.554688 14.175781 C 180.640625 13.40625 180.804688 12.652344 181.039062 11.914062 C 181.273438 11.175781 181.578125 10.464844 181.953125 9.789062 C 182.328125 9.109375 182.765625 8.472656 183.265625 7.882812 C 183.765625 7.289062 184.320312 6.753906 184.925781 6.269531 C 185.53125 5.785156 186.179688 5.367188 186.867188 5.011719 C 187.558594 4.65625 188.273438 4.371094 189.019531 4.15625 C 189.761719 3.941406 190.519531 3.804688 191.292969 3.738281 C 192.066406 3.671875 192.835938 3.683594 193.605469 3.769531 C 194.378906 3.859375 195.132812 4.019531 195.871094 4.253906 C 196.609375 4.492188 197.316406 4.796875 197.996094 5.171875 C 198.671875 5.546875 199.308594 5.984375 199.898438 6.484375 C 200.492188 6.984375 201.027344 7.535156 201.511719 8.144531 C 201.996094 8.75 202.414062 9.394531 202.769531 10.085938 C 203.125 10.773438 203.410156 11.488281 203.625 12.234375 Z M 203.625 12.234375 " fill-opacity="1" fill-rule="nonzero"/></g></g></g><g clip-path="url(#caaa07850d)"><g clip-path="url(#ac79172418)"><g clip-path="url(#b9c2b00c44)"><path fill="#f6971d" d="M 274.472656 75.21875 C 274.6875 75.960938 274.828125 76.71875 274.894531 77.492188 C 274.957031 78.265625 274.949219 79.035156 274.859375 79.804688 C 274.773438 80.574219 274.613281 81.328125 274.375 82.066406 C 274.140625 82.804688 273.835938 83.515625 273.460938 84.191406 C 273.085938 84.871094 272.648438 85.507812 272.148438 86.097656 C 271.648438 86.691406 271.09375 87.226562 270.488281 87.710938 C 269.882812 88.195312 269.234375 88.613281 268.546875 88.96875 C 267.859375 89.324219 267.140625 89.609375 266.398438 89.824219 C 265.652344 90.039062 264.894531 90.175781 264.121094 90.242188 C 263.351562 90.308594 262.578125 90.296875 261.808594 90.210938 C 261.039062 90.121094 260.285156 89.960938 259.546875 89.726562 C 258.808594 89.488281 258.097656 89.183594 257.421875 88.808594 C 256.742188 88.433594 256.109375 87.996094 255.515625 87.496094 C 254.925781 86.996094 254.386719 86.445312 253.902344 85.839844 C 253.421875 85.230469 253 84.585938 252.644531 83.894531 C 252.289062 83.207031 252.003906 82.492188 251.792969 81.746094 C 251.578125 81 251.4375 80.242188 251.371094 79.472656 C 251.308594 78.699219 251.316406 77.925781 251.40625 77.15625 C 251.492188 76.386719 251.652344 75.632812 251.890625 74.894531 C 252.125 74.15625 252.429688 73.449219 252.804688 72.769531 C 253.179688 72.09375 253.617188 71.457031 254.117188 70.863281 C 254.617188 70.273438 255.171875 69.734375 255.777344 69.253906 C 256.382812 68.769531 257.03125 68.351562 257.71875 67.996094 C 258.40625 67.640625 259.125 67.355469 259.867188 67.140625 C 260.613281 66.925781 261.371094 66.785156 262.144531 66.722656 C 262.914062 66.65625 263.6875 66.667969 264.457031 66.753906 C 265.226562 66.839844 265.980469 67.003906 266.71875 67.238281 C 267.457031 67.472656 268.164062 67.777344 268.84375 68.152344 C 269.523438 68.527344 270.15625 68.964844 270.75 69.464844 C 271.339844 69.964844 271.878906 70.519531 272.363281 71.125 C 272.84375 71.730469 273.265625 72.378906 273.621094 73.066406 C 273.976562 73.753906 274.261719 74.472656 274.472656 75.21875 Z M 274.472656 75.21875 " fill-opacity="1" fill-rule="nonzero"/></g></g></g><g clip-path="url(#71b74ecab2)"><g clip-path="url(#250cfba115)"><g clip-path="url(#e95f63b5f8)"><path fill="#19202b" d="M 245.570312 102.109375 C 245.785156 102.855469 245.925781 103.613281 245.988281 104.386719 C 246.054688 105.15625 246.042969 105.929688 245.957031 106.699219 C 245.871094 107.46875 245.707031 108.222656 245.472656 108.960938 C 245.238281 109.699219 244.933594 110.40625 244.558594 111.085938 C 244.183594 111.765625 243.746094 112.398438 243.242188 112.992188 C 242.742188 113.582031 242.191406 114.121094 241.585938 114.605469 C 240.980469 115.085938 240.332031 115.503906 239.644531 115.863281 C 238.953125 116.21875 238.238281 116.5 237.492188 116.714844 C 236.75 116.929688 235.988281 117.070312 235.21875 117.136719 C 234.445312 117.199219 233.675781 117.1875 232.90625 117.101562 C 232.132812 117.015625 231.378906 116.855469 230.640625 116.617188 C 229.902344 116.382812 229.195312 116.078125 228.515625 115.703125 C 227.839844 115.328125 227.203125 114.890625 226.613281 114.390625 C 226.019531 113.890625 225.484375 113.335938 225 112.730469 C 224.515625 112.125 224.097656 111.476562 223.742188 110.789062 C 223.386719 110.101562 223.101562 109.382812 222.886719 108.640625 C 222.671875 107.894531 222.53125 107.136719 222.46875 106.363281 C 222.402344 105.589844 222.414062 104.820312 222.5 104.050781 C 222.585938 103.28125 222.75 102.527344 222.984375 101.789062 C 223.21875 101.050781 223.523438 100.339844 223.898438 99.664062 C 224.273438 98.984375 224.714844 98.351562 225.214844 97.757812 C 225.714844 97.167969 226.265625 96.628906 226.871094 96.144531 C 227.476562 95.664062 228.125 95.242188 228.8125 94.886719 C 229.503906 94.53125 230.21875 94.246094 230.964844 94.03125 C 231.707031 93.820312 232.46875 93.679688 233.238281 93.613281 C 234.011719 93.550781 234.78125 93.558594 235.550781 93.648438 C 236.324219 93.734375 237.078125 93.894531 237.816406 94.128906 C 238.554688 94.367188 239.261719 94.671875 239.941406 95.046875 C 240.617188 95.421875 241.253906 95.859375 241.84375 96.359375 C 242.4375 96.859375 242.972656 97.414062 243.457031 98.019531 C 243.941406 98.625 244.359375 99.269531 244.714844 99.960938 C 245.070312 100.648438 245.355469 101.363281 245.570312 102.109375 Z M 245.570312 102.109375 " fill-opacity="1" fill-rule="nonzero"/></g></g></g><g clip-path="url(#e18647eed3)"><g clip-path="url(#883e5fb47c)"><g clip-path="url(#548c236e5d)"><path fill="#f6971d" d="M 224.660156 29.414062 C 224.777344 29.820312 224.851562 30.230469 224.886719 30.652344 C 224.921875 31.070312 224.917969 31.488281 224.871094 31.90625 C 224.824219 32.324219 224.734375 32.734375 224.605469 33.136719 C 224.480469 33.535156 224.3125 33.921875 224.109375 34.289062 C 223.90625 34.65625 223.667969 35 223.398438 35.324219 C 223.125 35.644531 222.824219 35.9375 222.496094 36.199219 C 222.167969 36.460938 221.816406 36.6875 221.441406 36.882812 C 221.070312 37.074219 220.679688 37.230469 220.277344 37.34375 C 219.871094 37.460938 219.460938 37.539062 219.039062 37.574219 C 218.621094 37.609375 218.203125 37.601562 217.785156 37.554688 C 217.367188 37.507812 216.957031 37.421875 216.554688 37.292969 C 216.15625 37.164062 215.769531 37 215.402344 36.796875 C 215.035156 36.59375 214.691406 36.355469 214.367188 36.082031 C 214.046875 35.8125 213.753906 35.511719 213.492188 35.183594 C 213.230469 34.851562 213.003906 34.5 212.808594 34.128906 C 212.617188 33.753906 212.460938 33.363281 212.347656 32.960938 C 212.230469 32.554688 212.152344 32.144531 212.117188 31.726562 C 212.082031 31.304688 212.089844 30.886719 212.136719 30.46875 C 212.183594 30.050781 212.269531 29.640625 212.398438 29.242188 C 212.527344 28.839844 212.691406 28.457031 212.894531 28.085938 C 213.097656 27.71875 213.335938 27.375 213.609375 27.054688 C 213.878906 26.730469 214.179688 26.441406 214.507812 26.179688 C 214.839844 25.914062 215.191406 25.6875 215.5625 25.496094 C 215.9375 25.300781 216.328125 25.148438 216.730469 25.03125 C 217.136719 24.914062 217.546875 24.839844 217.964844 24.804688 C 218.386719 24.769531 218.804688 24.773438 219.222656 24.820312 C 219.640625 24.867188 220.050781 24.957031 220.449219 25.085938 C 220.851562 25.210938 221.234375 25.378906 221.605469 25.582031 C 221.972656 25.785156 222.316406 26.023438 222.636719 26.292969 C 222.960938 26.566406 223.25 26.867188 223.511719 27.195312 C 223.777344 27.523438 224.003906 27.875 224.195312 28.25 C 224.390625 28.621094 224.542969 29.011719 224.660156 29.414062 Z M 224.660156 29.414062 " fill-opacity="1" fill-rule="nonzero"/></g></g></g><g clip-path="url(#a15df84ecc)"><g clip-path="url(#0f2130c809)"><g clip-path="url(#3227374247)"><path fill="#f6971d" d="M 271.777344 108.519531 C 271.894531 108.925781 271.972656 109.335938 272.007812 109.753906 C 272.042969 110.175781 272.035156 110.59375 271.988281 111.011719 C 271.941406 111.429688 271.855469 111.839844 271.726562 112.238281 C 271.597656 112.640625 271.433594 113.023438 271.230469 113.390625 C 271.023438 113.761719 270.789062 114.105469 270.515625 114.425781 C 270.246094 114.75 269.945312 115.039062 269.617188 115.300781 C 269.285156 115.566406 268.933594 115.792969 268.5625 115.984375 C 268.1875 116.179688 267.796875 116.332031 267.394531 116.449219 C 266.988281 116.566406 266.578125 116.640625 266.160156 116.675781 C 265.738281 116.710938 265.320312 116.707031 264.902344 116.660156 C 264.484375 116.613281 264.074219 116.523438 263.675781 116.394531 C 263.273438 116.269531 262.890625 116.101562 262.519531 115.898438 C 262.152344 115.695312 261.808594 115.457031 261.488281 115.1875 C 261.164062 114.914062 260.875 114.613281 260.613281 114.285156 C 260.347656 113.957031 260.121094 113.605469 259.929688 113.230469 C 259.734375 112.859375 259.582031 112.46875 259.464844 112.0625 C 259.347656 111.660156 259.273438 111.25 259.238281 110.828125 C 259.203125 110.410156 259.207031 109.992188 259.253906 109.574219 C 259.300781 109.15625 259.390625 108.746094 259.515625 108.34375 C 259.644531 107.945312 259.8125 107.558594 260.015625 107.191406 C 260.21875 106.824219 260.457031 106.476562 260.726562 106.15625 C 261 105.835938 261.300781 105.542969 261.628906 105.28125 C 261.957031 105.019531 262.308594 104.792969 262.683594 104.597656 C 263.054688 104.40625 263.445312 104.25 263.847656 104.132812 C 264.253906 104.019531 264.664062 103.941406 265.085938 103.90625 C 265.503906 103.871094 265.921875 103.878906 266.339844 103.925781 C 266.757812 103.972656 267.167969 104.058594 267.570312 104.1875 C 267.96875 104.316406 268.355469 104.480469 268.722656 104.683594 C 269.089844 104.886719 269.433594 105.125 269.757812 105.398438 C 270.078125 105.667969 270.371094 105.96875 270.632812 106.296875 C 270.894531 106.628906 271.121094 106.980469 271.316406 107.351562 C 271.507812 107.726562 271.664062 108.117188 271.777344 108.519531 Z M 271.777344 108.519531 " fill-opacity="1" fill-rule="nonzero"/></g></g></g><g clip-path="url(#5327fb75d1)"><g clip-path="url(#6c06d6c358)"><g clip-path="url(#fd6945870f)"><path fill="#19202b" d="M 99.683594 15.859375 C 99.800781 16.261719 99.875 16.675781 99.910156 17.09375 C 99.945312 17.515625 99.941406 17.933594 99.894531 18.351562 C 99.84375 18.769531 99.757812 19.179688 99.628906 19.578125 C 99.503906 19.980469 99.335938 20.363281 99.132812 20.730469 C 98.929688 21.101562 98.691406 21.445312 98.421875 21.765625 C 98.148438 22.089844 97.847656 22.378906 97.519531 22.640625 C 97.191406 22.902344 96.839844 23.132812 96.464844 23.324219 C 96.089844 23.519531 95.703125 23.671875 95.296875 23.789062 C 94.894531 23.90625 94.480469 23.980469 94.0625 24.015625 C 93.644531 24.050781 93.226562 24.046875 92.808594 24 C 92.390625 23.953125 91.980469 23.863281 91.578125 23.734375 C 91.179688 23.609375 90.792969 23.441406 90.425781 23.238281 C 90.058594 23.035156 89.710938 22.796875 89.390625 22.527344 C 89.070312 22.253906 88.777344 21.953125 88.515625 21.625 C 88.253906 21.296875 88.027344 20.945312 87.832031 20.570312 C 87.640625 20.199219 87.484375 19.808594 87.367188 19.402344 C 87.253906 19 87.175781 18.589844 87.140625 18.167969 C 87.105469 17.75 87.113281 17.332031 87.160156 16.914062 C 87.207031 16.496094 87.292969 16.085938 87.421875 15.683594 C 87.550781 15.285156 87.714844 14.898438 87.917969 14.53125 C 88.121094 14.164062 88.359375 13.816406 88.632812 13.496094 C 88.902344 13.175781 89.203125 12.882812 89.53125 12.621094 C 89.859375 12.359375 90.210938 12.132812 90.585938 11.9375 C 90.960938 11.746094 91.347656 11.589844 91.753906 11.472656 C 92.15625 11.359375 92.570312 11.28125 92.988281 11.246094 C 93.40625 11.210938 93.828125 11.21875 94.246094 11.265625 C 94.664062 11.3125 95.070312 11.398438 95.472656 11.527344 C 95.875 11.65625 96.257812 11.820312 96.625 12.023438 C 96.996094 12.226562 97.339844 12.464844 97.660156 12.738281 C 97.980469 13.007812 98.273438 13.308594 98.535156 13.636719 C 98.796875 13.96875 99.027344 14.316406 99.21875 14.691406 C 99.414062 15.066406 99.566406 15.453125 99.683594 15.859375 Z M 99.683594 15.859375 " fill-opacity="1" fill-rule="nonzero"/></g></g></g><g clip-path="url(#4ce75fc497)"><g clip-path="url(#8a51254ad9)"><g clip-path="url(#758696ff66)"><path fill="#f6971d" d="M 80.730469 26.929688 C 80.945312 27.671875 81.085938 28.433594 81.148438 29.203125 C 81.214844 29.976562 81.203125 30.746094 81.117188 31.515625 C 81.03125 32.289062 80.867188 33.042969 80.632812 33.78125 C 80.398438 34.519531 80.09375 35.226562 79.71875 35.90625 C 79.34375 36.582031 78.90625 37.21875 78.40625 37.808594 C 77.90625 38.402344 77.351562 38.9375 76.746094 39.421875 C 76.140625 39.90625 75.492188 40.324219 74.804688 40.679688 C 74.113281 41.035156 73.398438 41.320312 72.652344 41.535156 C 71.910156 41.75 71.152344 41.890625 70.378906 41.953125 C 69.605469 42.019531 68.835938 42.007812 68.066406 41.921875 C 67.292969 41.832031 66.539062 41.671875 65.800781 41.4375 C 65.0625 41.203125 64.355469 40.898438 63.675781 40.523438 C 63 40.144531 62.363281 39.707031 61.773438 39.207031 C 61.179688 38.707031 60.644531 38.15625 60.160156 37.550781 C 59.675781 36.945312 59.257812 36.296875 58.902344 35.609375 C 58.546875 34.917969 58.261719 34.203125 58.046875 33.457031 C 57.832031 32.714844 57.691406 31.953125 57.628906 31.183594 C 57.5625 30.410156 57.574219 29.640625 57.660156 28.871094 C 57.75 28.097656 57.910156 27.34375 58.144531 26.605469 C 58.378906 25.867188 58.6875 25.160156 59.0625 24.480469 C 59.4375 23.804688 59.875 23.167969 60.375 22.578125 C 60.875 21.984375 61.425781 21.449219 62.03125 20.964844 C 62.636719 20.480469 63.285156 20.0625 63.972656 19.707031 C 64.664062 19.351562 65.378906 19.066406 66.125 18.851562 C 66.867188 18.636719 67.628906 18.496094 68.398438 18.433594 C 69.171875 18.367188 69.941406 18.378906 70.714844 18.464844 C 71.484375 18.550781 72.238281 18.714844 72.976562 18.949219 C 73.714844 19.183594 74.421875 19.488281 75.101562 19.863281 C 75.777344 20.238281 76.414062 20.675781 77.003906 21.179688 C 77.597656 21.679688 78.136719 22.230469 78.617188 22.835938 C 79.101562 23.441406 79.519531 24.089844 79.875 24.777344 C 80.230469 25.46875 80.515625 26.183594 80.730469 26.929688 Z M 80.730469 26.929688 " fill-opacity="1" fill-rule="nonzero"/></g></g></g><g fill="#f6971d" fill-opacity="1"><g transform="translate(147.051856, 234.760667)"><g><path d="M 61.078125 -94.71875 L 61.078125 -75.78125 L 28.46875 -75.78125 L 28.46875 -56.953125 L 59.703125 -56.953125 L 59.703125 -38 L 28.46875 -38 L 28.46875 -18.9375 L 61.078125 -18.9375 L 61.078125 0 L 6.890625 0 L 6.890625 -94.71875 Z M 61.078125 -94.71875 "/></g></g></g><g fill="#f6971d" fill-opacity="1"><g transform="translate(213.632957, 234.760667)"><g><path d="M 6.890625 0 L 6.890625 -98.734375 L 27.203125 -98.734375 L 27.203125 0 Z M 6.890625 0 "/></g></g></g><g fill="#f6971d" fill-opacity="1"><g transform="translate(247.727063, 234.760667)"><g><path d="M 66.46875 -26.640625 L 23.765625 -26.640625 C 23.765625 -22.503906 25.101562 -19.441406 27.78125 -17.453125 C 30.457031 -15.460938 33.367188 -14.46875 36.515625 -14.46875 C 39.804688 -14.46875 42.40625 -14.90625 44.3125 -15.78125 C 46.226562 -16.664062 48.410156 -18.410156 50.859375 -21.015625 L 65.5625 -13.65625 C 59.4375 -3.40625 49.253906 1.71875 35.015625 1.71875 C 26.140625 1.71875 18.523438 -1.320312 12.171875 -7.40625 C 5.816406 -13.488281 2.640625 -20.816406 2.640625 -29.390625 C 2.640625 -37.960938 5.816406 -45.3125 12.171875 -51.4375 C 18.523438 -57.5625 26.140625 -60.625 35.015625 -60.625 C 44.359375 -60.625 51.957031 -57.925781 57.8125 -52.53125 C 63.664062 -47.132812 66.59375 -39.421875 66.59375 -29.390625 C 66.59375 -28.015625 66.550781 -27.097656 66.46875 -26.640625 Z M 24.34375 -37.890625 L 46.734375 -37.890625 C 46.273438 -40.953125 45.066406 -43.304688 43.109375 -44.953125 C 41.160156 -46.597656 38.65625 -47.421875 35.59375 -47.421875 C 32.226562 -47.421875 29.546875 -46.539062 27.546875 -44.78125 C 25.554688 -43.019531 24.488281 -40.722656 24.34375 -37.890625 Z M 24.34375 -37.890625 "/></g></g></g><g fill="#f6971d" fill-opacity="1"><g transform="translate(316.948424, 234.760667)"><g><path d="M 38.234375 -43.96875 C 34.398438 -43.96875 31.101562 -42.550781 28.34375 -39.71875 C 25.59375 -36.894531 24.21875 -33.488281 24.21875 -29.5 C 24.21875 -25.445312 25.59375 -22.003906 28.34375 -19.171875 C 31.101562 -16.335938 34.398438 -14.921875 38.234375 -14.921875 C 40.066406 -14.921875 41.804688 -15.148438 43.453125 -15.609375 C 45.097656 -16.066406 46.304688 -16.53125 47.078125 -17 L 48.109375 -17.6875 L 55 -3.5625 C 54.457031 -3.175781 53.707031 -2.695312 52.75 -2.125 C 51.800781 -1.550781 49.625 -0.769531 46.21875 0.21875 C 42.8125 1.21875 39.15625 1.71875 35.25 1.71875 C 26.601562 1.71875 19.003906 -1.320312 12.453125 -7.40625 C 5.910156 -13.488281 2.640625 -20.78125 2.640625 -29.28125 C 2.640625 -37.851562 5.910156 -45.21875 12.453125 -51.375 C 19.003906 -57.539062 26.601562 -60.625 35.25 -60.625 C 39.15625 -60.625 42.753906 -60.160156 46.046875 -59.234375 C 49.335938 -58.316406 51.671875 -57.398438 53.046875 -56.484375 L 55 -55.109375 L 48.109375 -41.21875 C 45.578125 -43.050781 42.285156 -43.96875 38.234375 -43.96875 Z M 38.234375 -43.96875 "/></g></g></g><g fill="#f6971d" fill-opacity="1"><g transform="translate(373.312748, 234.760667)"><g><path d="M 85.1875 0 L 80.71875 -56.140625 L 80.140625 -56.140625 L 60.734375 -0.578125 L 47.875 -0.578125 L 28.46875 -56.140625 L 27.90625 -56.140625 L 23.421875 0 L 1.84375 0 L 10.328125 -94.71875 L 33.296875 -94.71875 L 54.3125 -40.0625 L 75.3125 -94.71875 L 98.28125 -94.71875 L 106.78125 0 Z M 85.1875 0 "/></g></g></g><g fill="#f6971d" fill-opacity="1"><g transform="translate(481.908791, 234.760667)"><g><path d="M 10.90625 -7.28125 C 5.394531 -13.289062 2.640625 -20.660156 2.640625 -29.390625 C 2.640625 -38.117188 5.394531 -45.503906 10.90625 -51.546875 C 16.414062 -57.597656 23.421875 -60.625 31.921875 -60.625 C 39.722656 -60.625 46.148438 -58.171875 51.203125 -53.265625 L 51.203125 -58.90625 L 71.53125 -58.90625 L 71.53125 0 L 51.4375 0 L 51.4375 -6.65625 L 51.203125 -6.65625 C 46.148438 -1.070312 39.722656 1.71875 31.921875 1.71875 C 23.421875 1.71875 16.414062 -1.28125 10.90625 -7.28125 Z M 28.171875 -39.375 C 25.535156 -36.78125 24.21875 -33.453125 24.21875 -29.390625 C 24.21875 -25.335938 25.476562 -22.023438 28 -19.453125 C 30.53125 -16.890625 33.863281 -15.609375 38 -15.609375 C 41.976562 -15.609375 45.25 -16.910156 47.8125 -19.515625 C 50.382812 -22.117188 51.671875 -25.410156 51.671875 -29.390625 C 51.671875 -33.453125 50.347656 -36.78125 47.703125 -39.375 C 45.066406 -41.976562 41.832031 -43.28125 38 -43.28125 C 34.09375 -43.28125 30.816406 -41.976562 28.171875 -39.375 Z M 28.171875 -39.375 "/></g></g></g><g fill="#f6971d" fill-opacity="1"><g transform="translate(560.313751, 234.760667)"><g><path d="M 6.890625 0 L 6.890625 -58.90625 L 27.203125 -58.90625 L 27.203125 -50.40625 L 27.4375 -50.40625 C 27.59375 -50.707031 27.84375 -51.085938 28.1875 -51.546875 C 28.53125 -52.003906 29.273438 -52.804688 30.421875 -53.953125 C 31.566406 -55.109375 32.789062 -56.144531 34.09375 -57.0625 C 35.394531 -57.976562 37.078125 -58.800781 39.140625 -59.53125 C 41.210938 -60.257812 43.320312 -60.625 45.46875 -60.625 C 47.6875 -60.625 49.863281 -60.316406 52 -59.703125 C 54.144531 -59.085938 55.71875 -58.472656 56.71875 -57.859375 L 58.328125 -56.953125 L 49.828125 -39.71875 C 47.304688 -41.863281 43.785156 -42.9375 39.265625 -42.9375 C 36.816406 -42.9375 34.710938 -42.398438 32.953125 -41.328125 C 31.191406 -40.253906 29.945312 -38.953125 29.21875 -37.421875 C 28.488281 -35.890625 27.96875 -34.585938 27.65625 -33.515625 C 27.351562 -32.453125 27.203125 -31.613281 27.203125 -31 L 27.203125 0 Z M 6.890625 0 "/></g></g></g><g fill="#f6971d" fill-opacity="1"><g transform="translate(617.481616, 234.760667)"><g><path d="M 10.328125 -58.90625 L 10.328125 -80.828125 L 30.65625 -80.828125 L 30.65625 -58.90625 L 43.0625 -58.90625 L 43.0625 -43.40625 L 30.65625 -43.40625 L 30.65625 -24.6875 C 30.65625 -19.25 32.1875 -16.53125 35.25 -16.53125 C 36.007812 -16.53125 36.8125 -16.679688 37.65625 -16.984375 C 38.5 -17.296875 39.148438 -17.601562 39.609375 -17.90625 L 40.296875 -18.375 L 45.34375 -1.953125 C 40.988281 0.492188 36.015625 1.71875 30.421875 1.71875 C 26.597656 1.71875 23.304688 1.050781 20.546875 -0.28125 C 17.796875 -1.625 15.710938 -3.421875 14.296875 -5.671875 C 12.878906 -7.929688 11.863281 -10.304688 11.25 -12.796875 C 10.632812 -15.285156 10.328125 -17.945312 10.328125 -20.78125 L 10.328125 -43.40625 L 1.84375 -43.40625 L 1.84375 -58.90625 Z M 10.328125 -58.90625 "/></g></g></g><g fill="#f6971d" fill-opacity="1"><g transform="translate(249.359859, 286.429083)"><g><path d="M 23.5 -28.65625 L 23.5 -9.171875 C 23.488281 -6.472656 22.640625 -4.257812 20.953125 -2.53125 C 19.265625 -0.8125 16.976562 0.148438 14.09375 0.359375 L 13.09375 0.390625 C 9.957031 0.390625 7.457031 -0.453125 5.59375 -2.140625 C 3.726562 -3.835938 2.78125 -6.171875 2.75 -9.140625 L 2.75 -28.65625 L 6.5 -28.65625 L 6.5 -9.25 C 6.5 -7.175781 7.066406 -5.566406 8.203125 -4.421875 C 9.347656 -3.273438 10.976562 -2.703125 13.09375 -2.703125 C 15.226562 -2.703125 16.863281 -3.269531 18 -4.40625 C 19.132812 -5.550781 19.703125 -7.160156 19.703125 -9.234375 L 19.703125 -28.65625 Z M 23.5 -28.65625 "/></g></g></g><g fill="#f6971d" fill-opacity="1"><g transform="translate(282.550371, 286.429083)"><g><path d="M 6.203125 -21.296875 L 6.3125 -18.625 C 7.945312 -20.664062 10.078125 -21.6875 12.703125 -21.6875 C 17.203125 -21.6875 19.46875 -19.148438 19.5 -14.078125 L 19.5 0 L 15.859375 0 L 15.859375 -14.09375 C 15.847656 -15.625 15.5 -16.753906 14.8125 -17.484375 C 14.125 -18.222656 13.050781 -18.59375 11.59375 -18.59375 C 10.414062 -18.59375 9.378906 -18.28125 8.484375 -17.65625 C 7.585938 -17.03125 6.890625 -16.203125 6.390625 -15.171875 L 6.390625 0 L 2.75 0 L 2.75 -21.296875 Z M 6.203125 -21.296875 "/></g></g></g><g fill="#f6971d" fill-opacity="1"><g transform="translate(311.844374, 286.429083)"><g><path d="M 20.78125 -10.40625 C 20.78125 -7.15625 20.03125 -4.539062 18.53125 -2.5625 C 17.039062 -0.59375 15.035156 0.390625 12.515625 0.390625 C 9.828125 0.390625 7.75 -0.554688 6.28125 -2.453125 L 6.109375 0 L 2.75 0 L 2.75 -30.234375 L 6.390625 -30.234375 L 6.390625 -18.953125 C 7.867188 -20.773438 9.898438 -21.6875 12.484375 -21.6875 C 15.066406 -21.6875 17.09375 -20.707031 18.5625 -18.75 C 20.039062 -16.800781 20.78125 -14.128906 20.78125 -10.734375 Z M 17.140625 -10.828125 C 17.140625 -13.304688 16.660156 -15.21875 15.703125 -16.5625 C 14.742188 -17.914062 13.367188 -18.59375 11.578125 -18.59375 C 9.171875 -18.59375 7.441406 -17.476562 6.390625 -15.25 L 6.390625 -6.046875 C 7.515625 -3.816406 9.253906 -2.703125 11.609375 -2.703125 C 13.359375 -2.703125 14.71875 -3.375 15.6875 -4.71875 C 16.65625 -6.070312 17.140625 -8.109375 17.140625 -10.828125 Z M 17.140625 -10.828125 "/></g></g></g><g fill="#f6971d" fill-opacity="1"><g transform="translate(341.512286, 286.429083)"><g><path d="M 1.796875 -10.84375 C 1.796875 -12.925781 2.203125 -14.800781 3.015625 -16.46875 C 3.835938 -18.132812 4.976562 -19.421875 6.4375 -20.328125 C 7.90625 -21.234375 9.578125 -21.6875 11.453125 -21.6875 C 14.359375 -21.6875 16.707031 -20.679688 18.5 -18.671875 C 20.289062 -16.671875 21.1875 -14.003906 21.1875 -10.671875 L 21.1875 -10.40625 C 21.1875 -8.332031 20.785156 -6.472656 19.984375 -4.828125 C 19.191406 -3.179688 18.054688 -1.898438 16.578125 -0.984375 C 15.109375 -0.0664062 13.414062 0.390625 11.5 0.390625 C 8.613281 0.390625 6.273438 -0.609375 4.484375 -2.609375 C 2.691406 -4.617188 1.796875 -7.28125 1.796875 -10.59375 Z M 5.453125 -10.40625 C 5.453125 -8.050781 6 -6.15625 7.09375 -4.71875 C 8.1875 -3.289062 9.65625 -2.578125 11.5 -2.578125 C 13.34375 -2.578125 14.804688 -3.300781 15.890625 -4.75 C 16.984375 -6.195312 17.53125 -8.226562 17.53125 -10.84375 C 17.53125 -13.175781 16.976562 -15.066406 15.875 -16.515625 C 14.769531 -17.972656 13.296875 -18.703125 11.453125 -18.703125 C 9.660156 -18.703125 8.210938 -17.984375 7.109375 -16.546875 C 6.003906 -15.117188 5.453125 -13.070312 5.453125 -10.40625 Z M 5.453125 -10.40625 "/></g></g></g><g fill="#f6971d" fill-opacity="1"><g transform="translate(371.554105, 286.429083)"><g><path d="M 9.90625 -13.515625 L 14.625 -21.296875 L 18.875 -21.296875 L 11.90625 -10.765625 L 19.09375 0 L 14.875 0 L 9.953125 -7.96875 L 5.046875 0 L 0.8125 0 L 7.984375 -10.765625 L 1.03125 -21.296875 L 5.234375 -21.296875 Z M 9.90625 -13.515625 "/></g></g></g><g fill="#f6971d" fill-opacity="1"><g transform="translate(398.584985, 286.429083)"><g/></g></g><g fill="#f6971d" fill-opacity="1"><g transform="translate(415.618764, 286.429083)"><g><path d="M 25.359375 0 L 21.546875 0 L 21.546875 -13.25 L 7.109375 -13.25 L 7.109375 0 L 3.328125 0 L 3.328125 -28.65625 L 7.109375 -28.65625 L 7.109375 -16.34375 L 21.546875 -16.34375 L 21.546875 -28.65625 L 25.359375 -28.65625 Z M 25.359375 0 "/></g></g></g><g fill="#f6971d" fill-opacity="1"><g transform="translate(451.406948, 286.429083)"><g><path d="M 15.90625 0 C 15.695312 -0.414062 15.523438 -1.164062 15.390625 -2.25 C 13.703125 -0.488281 11.679688 0.390625 9.328125 0.390625 C 7.234375 0.390625 5.507812 -0.203125 4.15625 -1.390625 C 2.8125 -2.578125 2.140625 -4.082031 2.140625 -5.90625 C 2.140625 -8.125 2.984375 -9.84375 4.671875 -11.0625 C 6.359375 -12.289062 8.734375 -12.90625 11.796875 -12.90625 L 15.328125 -12.90625 L 15.328125 -14.578125 C 15.328125 -15.859375 14.945312 -16.875 14.1875 -17.625 C 13.425781 -18.382812 12.304688 -18.765625 10.828125 -18.765625 C 9.523438 -18.765625 8.429688 -18.4375 7.546875 -17.78125 C 6.671875 -17.125 6.234375 -16.328125 6.234375 -15.390625 L 2.578125 -15.390625 C 2.578125 -16.453125 2.953125 -17.476562 3.703125 -18.46875 C 4.460938 -19.457031 5.488281 -20.238281 6.78125 -20.8125 C 8.070312 -21.394531 9.492188 -21.6875 11.046875 -21.6875 C 13.492188 -21.6875 15.410156 -21.070312 16.796875 -19.84375 C 18.191406 -18.625 18.914062 -16.9375 18.96875 -14.78125 L 18.96875 -4.984375 C 18.96875 -3.023438 19.21875 -1.46875 19.71875 -0.3125 L 19.71875 0 Z M 9.859375 -2.78125 C 11.003906 -2.78125 12.085938 -3.070312 13.109375 -3.65625 C 14.128906 -4.25 14.867188 -5.019531 15.328125 -5.96875 L 15.328125 -10.328125 L 12.484375 -10.328125 C 8.015625 -10.328125 5.78125 -9.023438 5.78125 -6.421875 C 5.78125 -5.273438 6.160156 -4.378906 6.921875 -3.734375 C 7.691406 -3.097656 8.671875 -2.78125 9.859375 -2.78125 Z M 9.859375 -2.78125 "/></g></g></g><g fill="#f6971d" fill-opacity="1"><g transform="translate(480.386082, 286.429083)"><g><path d="M 20.75 -10.40625 C 20.75 -7.164062 20.003906 -4.554688 18.515625 -2.578125 C 17.035156 -0.597656 15.03125 0.390625 12.5 0.390625 C 9.914062 0.390625 7.878906 -0.425781 6.390625 -2.0625 L 6.390625 8.1875 L 2.75 8.1875 L 2.75 -21.296875 L 6.078125 -21.296875 L 6.265625 -18.9375 C 7.742188 -20.769531 9.800781 -21.6875 12.4375 -21.6875 C 15 -21.6875 17.023438 -20.722656 18.515625 -18.796875 C 20.003906 -16.867188 20.75 -14.1875 20.75 -10.75 Z M 17.109375 -10.828125 C 17.109375 -13.222656 16.59375 -15.113281 15.5625 -16.5 C 14.539062 -17.894531 13.140625 -18.59375 11.359375 -18.59375 C 9.148438 -18.59375 7.492188 -17.617188 6.390625 -15.671875 L 6.390625 -5.484375 C 7.484375 -3.546875 9.148438 -2.578125 11.390625 -2.578125 C 13.140625 -2.578125 14.53125 -3.269531 15.5625 -4.65625 C 16.59375 -6.039062 17.109375 -8.097656 17.109375 -10.828125 Z M 17.109375 -10.828125 "/></g></g></g><g fill="#f6971d" fill-opacity="1"><g transform="translate(510.053993, 286.429083)"><g><path d="M 20.75 -10.40625 C 20.75 -7.164062 20.003906 -4.554688 18.515625 -2.578125 C 17.035156 -0.597656 15.03125 0.390625 12.5 0.390625 C 9.914062 0.390625 7.878906 -0.425781 6.390625 -2.0625 L 6.390625 8.1875 L 2.75 8.1875 L 2.75 -21.296875 L 6.078125 -21.296875 L 6.265625 -18.9375 C 7.742188 -20.769531 9.800781 -21.6875 12.4375 -21.6875 C 15 -21.6875 17.023438 -20.722656 18.515625 -18.796875 C 20.003906 -16.867188 20.75 -14.1875 20.75 -10.75 Z M 17.109375 -10.828125 C 17.109375 -13.222656 16.59375 -15.113281 15.5625 -16.5 C 14.539062 -17.894531 13.140625 -18.59375 11.359375 -18.59375 C 9.148438 -18.59375 7.492188 -17.617188 6.390625 -15.671875 L 6.390625 -5.484375 C 7.484375 -3.546875 9.148438 -2.578125 11.390625 -2.578125 C 13.140625 -2.578125 14.53125 -3.269531 15.5625 -4.65625 C 16.59375 -6.039062 17.109375 -8.097656 17.109375 -10.828125 Z M 17.109375 -10.828125 "/></g></g></g><g fill="#f6971d" fill-opacity="1"><g transform="translate(539.721904, 286.429083)"><g><path d="M 6.71875 0 L 3.078125 0 L 3.078125 -21.296875 L 6.71875 -21.296875 Z M 2.78125 -26.953125 C 2.78125 -27.535156 2.957031 -28.03125 3.3125 -28.4375 C 3.675781 -28.84375 4.210938 -29.046875 4.921875 -29.046875 C 5.628906 -29.046875 6.164062 -28.84375 6.53125 -28.4375 C 6.90625 -28.03125 7.09375 -27.53125 7.09375 -26.9375 C 7.09375 -26.351562 6.90625 -25.863281 6.53125 -25.46875 C 6.164062 -25.070312 5.628906 -24.875 4.921875 -24.875 C 4.210938 -24.875 3.675781 -25.070312 3.3125 -25.46875 C 2.957031 -25.863281 2.78125 -26.359375 2.78125 -26.953125 Z M 2.78125 -26.953125 "/></g></g></g><g fill="#f6971d" fill-opacity="1"><g transform="translate(556.55889, 286.429083)"><g><path d="M 6.203125 -21.296875 L 6.3125 -18.625 C 7.945312 -20.664062 10.078125 -21.6875 12.703125 -21.6875 C 17.203125 -21.6875 19.46875 -19.148438 19.5 -14.078125 L 19.5 0 L 15.859375 0 L 15.859375 -14.09375 C 15.847656 -15.625 15.5 -16.753906 14.8125 -17.484375 C 14.125 -18.222656 13.050781 -18.59375 11.59375 -18.59375 C 10.414062 -18.59375 9.378906 -18.28125 8.484375 -17.65625 C 7.585938 -17.03125 6.890625 -16.203125 6.390625 -15.171875 L 6.390625 0 L 2.75 0 L 2.75 -21.296875 Z M 6.203125 -21.296875 "/></g></g></g><g fill="#f6971d" fill-opacity="1"><g transform="translate(585.852894, 286.429083)"><g><path d="M 11.59375 0.390625 C 8.707031 0.390625 6.359375 -0.554688 4.546875 -2.453125 C 2.734375 -4.347656 1.828125 -6.882812 1.828125 -10.0625 L 1.828125 -10.734375 C 1.828125 -12.835938 2.226562 -14.71875 3.03125 -16.375 C 3.84375 -18.039062 4.972656 -19.34375 6.421875 -20.28125 C 7.878906 -21.21875 9.453125 -21.6875 11.140625 -21.6875 C 13.910156 -21.6875 16.0625 -20.773438 17.59375 -18.953125 C 19.132812 -17.128906 19.90625 -14.519531 19.90625 -11.125 L 19.90625 -9.609375 L 5.46875 -9.609375 C 5.519531 -7.503906 6.132812 -5.804688 7.3125 -4.515625 C 8.488281 -3.222656 9.984375 -2.578125 11.796875 -2.578125 C 13.078125 -2.578125 14.160156 -2.835938 15.046875 -3.359375 C 15.941406 -3.890625 16.726562 -4.585938 17.40625 -5.453125 L 19.625 -3.71875 C 17.84375 -0.976562 15.164062 0.390625 11.59375 0.390625 Z M 11.140625 -18.703125 C 9.671875 -18.703125 8.4375 -18.164062 7.4375 -17.09375 C 6.4375 -16.019531 5.820312 -14.519531 5.59375 -12.59375 L 16.265625 -12.59375 L 16.265625 -12.875 C 16.148438 -14.726562 15.644531 -16.160156 14.75 -17.171875 C 13.863281 -18.191406 12.660156 -18.703125 11.140625 -18.703125 Z M 11.140625 -18.703125 "/></g></g></g><g fill="#f6971d" fill-opacity="1"><g transform="translate(614.261328, 286.429083)"><g><path d="M 15.15625 -5.65625 C 15.15625 -6.632812 14.785156 -7.394531 14.046875 -7.9375 C 13.304688 -8.488281 12.015625 -8.957031 10.171875 -9.34375 C 8.328125 -9.738281 6.863281 -10.210938 5.78125 -10.765625 C 4.695312 -11.316406 3.894531 -11.972656 3.375 -12.734375 C 2.851562 -13.492188 2.59375 -14.398438 2.59375 -15.453125 C 2.59375 -17.191406 3.332031 -18.664062 4.8125 -19.875 C 6.289062 -21.082031 8.175781 -21.6875 10.46875 -21.6875 C 12.882812 -21.6875 14.84375 -21.0625 16.34375 -19.8125 C 17.84375 -18.570312 18.59375 -16.976562 18.59375 -15.03125 L 14.9375 -15.03125 C 14.9375 -16.03125 14.515625 -16.890625 13.671875 -17.609375 C 12.828125 -18.335938 11.757812 -18.703125 10.46875 -18.703125 C 9.144531 -18.703125 8.109375 -18.410156 7.359375 -17.828125 C 6.609375 -17.253906 6.234375 -16.5 6.234375 -15.5625 C 6.234375 -14.6875 6.582031 -14.023438 7.28125 -13.578125 C 7.976562 -13.128906 9.234375 -12.703125 11.046875 -12.296875 C 12.867188 -11.890625 14.34375 -11.40625 15.46875 -10.84375 C 16.601562 -10.28125 17.441406 -9.601562 17.984375 -8.8125 C 18.523438 -8.019531 18.796875 -7.050781 18.796875 -5.90625 C 18.796875 -4 18.035156 -2.472656 16.515625 -1.328125 C 14.992188 -0.179688 13.019531 0.390625 10.59375 0.390625 C 8.882812 0.390625 7.375 0.0859375 6.0625 -0.515625 C 4.75 -1.117188 3.722656 -1.960938 2.984375 -3.046875 C 2.242188 -4.128906 1.875 -5.300781 1.875 -6.5625 L 5.515625 -6.5625 C 5.578125 -5.332031 6.0625 -4.359375 6.96875 -3.640625 C 7.882812 -2.929688 9.09375 -2.578125 10.59375 -2.578125 C 11.96875 -2.578125 13.070312 -2.851562 13.90625 -3.40625 C 14.738281 -3.96875 15.15625 -4.71875 15.15625 -5.65625 Z M 15.15625 -5.65625 "/></g></g></g><g fill="#f6971d" fill-opacity="1"><g transform="translate(642.099061, 286.429083)"><g><path d="M 15.15625 -5.65625 C 15.15625 -6.632812 14.785156 -7.394531 14.046875 -7.9375 C 13.304688 -8.488281 12.015625 -8.957031 10.171875 -9.34375 C 8.328125 -9.738281 6.863281 -10.210938 5.78125 -10.765625 C 4.695312 -11.316406 3.894531 -11.972656 3.375 -12.734375 C 2.851562 -13.492188 2.59375 -14.398438 2.59375 -15.453125 C 2.59375 -17.191406 3.332031 -18.664062 4.8125 -19.875 C 6.289062 -21.082031 8.175781 -21.6875 10.46875 -21.6875 C 12.882812 -21.6875 14.84375 -21.0625 16.34375 -19.8125 C 17.84375 -18.570312 18.59375 -16.976562 18.59375 -15.03125 L 14.9375 -15.03125 C 14.9375 -16.03125 14.515625 -16.890625 13.671875 -17.609375 C 12.828125 -18.335938 11.757812 -18.703125 10.46875 -18.703125 C 9.144531 -18.703125 8.109375 -18.410156 7.359375 -17.828125 C 6.609375 -17.253906 6.234375 -16.5 6.234375 -15.5625 C 6.234375 -14.6875 6.582031 -14.023438 7.28125 -13.578125 C 7.976562 -13.128906 9.234375 -12.703125 11.046875 -12.296875 C 12.867188 -11.890625 14.34375 -11.40625 15.46875 -10.84375 C 16.601562 -10.28125 17.441406 -9.601562 17.984375 -8.8125 C 18.523438 -8.019531 18.796875 -7.050781 18.796875 -5.90625 C 18.796875 -4 18.035156 -2.472656 16.515625 -1.328125 C 14.992188 -0.179688 13.019531 0.390625 10.59375 0.390625 C 8.882812 0.390625 7.375 0.0859375 6.0625 -0.515625 C 4.75 -1.117188 3.722656 -1.960938 2.984375 -3.046875 C 2.242188 -4.128906 1.875 -5.300781 1.875 -6.5625 L 5.515625 -6.5625 C 5.578125 -5.332031 6.0625 -4.359375 6.96875 -3.640625 C 7.882812 -2.929688 9.09375 -2.578125 10.59375 -2.578125 C 11.96875 -2.578125 13.070312 -2.851562 13.90625 -3.40625 C 14.738281 -3.96875 15.15625 -4.71875 15.15625 -5.65625 Z M 15.15625 -5.65625 "/></g></g></g></svg>